<svg width="22" height="23" xmlns="http://www.w3.org/2000/svg"><path d="M2 2.038V8.15h6V2.038H2zM0 1.014C0 .454.456 0 .995 0h8.01c.55 0 .995.464.995 1.014v8.16c0 .56-.456 1.015-.995 1.015H.995c-.55 0-.995-.465-.995-1.014v-8.16zm2 13.25v6.113h6v-6.113H2zm-2-1.023c0-.56.456-1.015.995-1.015h8.01c.55 0 .995.465.995 1.015v8.16c0 .56-.456 1.014-.995 1.014H.995c-.55 0-.995-.464-.995-1.014v-8.16zm14 1.023v6.113h6v-6.113h-6zm-2-1.023c0-.56.456-1.015.995-1.015h8.01c.55 0 .995.465.995 1.015v8.16c0 .56-.456 1.014-.995 1.014h-8.01c-.55 0-.995-.464-.995-1.014v-8.16zm2-11.203V8.15h6V2.038h-6zm-2-1.024c0-.56.456-1.014.995-1.014h8.01c.55 0 .995.464.995 1.014v8.16c0 .56-.456 1.015-.995 1.015h-8.01c-.55 0-.995-.465-.995-1.014v-8.16z" fill="#13A89E" fill-rule="nonzero"/></svg>