<svg width="426" height="247" viewBox="0 0 426 247" xmlns="http://www.w3.org/2000/svg"><g fill="none" fill-rule="evenodd"><path d="M212.087 196.563c-5.951 0-9.918 4.465-9.918 12.834 0 8.184 3.285 13.02 9.918 13.02 5.953 0 9.92-4.465 9.92-12.834 0-8.184-3.285-13.02-9.92-13.02zm44.101-.371a43.72 43.72 0 00-2.975.123v10.85s1.363.063 2.727.063c4.092 0 6.635-1.984 6.635-5.58 0-3.224-1.922-5.456-6.387-5.456zm-90.209 0c-1.178 0-2.667.123-2.667.123v13.145s1.427.247 3.038.247c4.465 0 7.006-2.665 7.006-6.757 0-3.969-2.23-6.758-7.377-6.758z" fill="#00807B"/><path d="M397.196 172.604H.347v45.353c0 15.592 12.757 28.348 28.346 28.348h368.503c15.592 0 28.35-12.756 28.35-28.348v-45.353h-28.35zm-270.927 58.554c-3.781 0-7.129-.435-9.921-1.116l.87-9.176c2.789 1.116 6.262 1.86 9.546 1.86 3.349 0 5.829-1.179 5.829-4.03 0-6.943-17.049-4.277-17.049-18.041 0-7.688 6.074-12.833 16.553-12.833 2.17 0 5.207.248 7.625.806l-.867 8.432a22.479 22.479 0 00-7.379-1.24c-3.967 0-5.766 1.551-5.766 3.906 0 6.572 17.236 4.277 17.236 17.979 0 7.873-5.952 13.453-16.677 13.453zm39.585-13.577c-1.301 0-2.542-.063-2.542-.063v12.896h-9.671v-41.848s6.201-.31 12.709-.31c11.098 0 16.926 5.084 16.926 13.763 0 8.556-5.951 15.562-17.422 15.562zm45.551 13.639c-12.895 0-19.59-7.439-19.59-20.83 0-14.632 9.672-22.629 20.955-22.629 12.832 0 19.527 7.439 19.527 20.83.001 14.632-9.669 22.629-20.892 22.629zm52.533-.806l-9.113-16.058h-1.611v16.058h-9.672v-41.848s5.951-.31 13.204-.31c10.044 0 15.995 3.657 15.995 12.585 0 6.323-3.533 10.105-8.369 11.718 0 0 1.736 2.418 3.038 4.588l8.245 13.267h-11.717zm47.59-33.602h-10.043v33.603h-9.609v-33.603h-10.043v-8.245h29.695v8.245z" fill="#00807B"/><path d="M333.542.882l57.096 96.75-57.096 13.504-54.436-18.012L333.542.882zm-9.293 0l-46.002 77.953h-42.318L90.138 30.591c4.118-16.88 19.22-29.455 37.31-29.705l.549-.004h196.252zm-243.234 0v26.689L.36.882h80.655z" fill="#00A099"/><path d="M230.472 85.03L89.062 38.235c-.025.54-.039 1.082-.041 1.623 0 21.52 17.439 38.965 38.956 38.977H89.021v77.953h120.25v-.004c.042 0 .084.004.127.004 21.527 0 38.977-17.451 38.977-38.977 0-13.759-7.138-25.845-17.903-32.781zM.348 8.88v147.908h80.668V35.573L.348 8.88zm333.194 110.262l-58.385-19.32-33.617 56.967h184.006l-30.765-52.133-61.239 14.486z" fill="#E05E5E"/></g></svg>