<svg width="109" height="61" viewBox="0 0 109 61" xmlns="http://www.w3.org/2000/svg"><g fill="none" fill-rule="evenodd"><path d="M52.546 47.156c-1.556 0-2.593 1.187-2.593 3.411 0 2.176.859 3.462 2.593 3.462 1.556 0 2.593-1.187 2.593-3.412 0-2.176-.858-3.461-2.593-3.461zm11.53-.099c-.373 0-.778.033-.778.033v2.884s.357.017.713.017c1.07 0 1.735-.528 1.735-1.483 0-.858-.502-1.45-1.67-1.45zm-23.585 0c-.308 0-.697.033-.697.033v3.494s.373.066.794.066c1.167 0 1.832-.709 1.832-1.796 0-1.055-.583-1.797-1.93-1.797z" fill="#00807B"/><path d="M100.118 41.829H0v11.797C0 57.682 3.218 61 7.151 61h92.967c3.933 0 7.152-3.318 7.152-7.374V41.829h-7.152zm-68.35 15.23c-.954 0-1.799-.112-2.503-.29l.22-2.386a6.56 6.56 0 002.408.484c.845 0 1.47-.307 1.47-1.049 0-1.806-4.3-1.112-4.3-4.693 0-2 1.531-3.338 4.175-3.338.548 0 1.314.065 1.924.21l-.219 2.193a5.517 5.517 0 00-1.862-.322c-1 0-1.454.403-1.454 1.016 0 1.71 4.348 1.112 4.348 4.676 0 2.048-1.501 3.5-4.207 3.5zm9.986-3.53c-.328 0-.64-.017-.64-.017v3.354h-2.44V45.981s1.564-.081 3.205-.081c2.8 0 4.27 1.323 4.27 3.58 0 2.226-1.5 4.048-4.395 4.048zm11.492 3.547c-3.253 0-4.942-1.935-4.942-5.418 0-3.807 2.44-5.887 5.286-5.887 3.238 0 4.927 1.935 4.927 5.419 0 3.806-2.44 5.886-5.271 5.886zm13.253-.21L64.2 52.69h-.406v4.177h-2.44V45.981s1.5-.081 3.33-.081c2.535 0 4.036.951 4.036 3.274 0 1.644-.891 2.628-2.111 3.048 0 0 .438.629.766 1.193l2.08 3.451H66.5zm12.006-8.74h-2.533v8.74h-2.425v-8.74h-2.533V45.98h7.491v2.145z" fill="#00807B"/><path fill="#E05E5E" fill-rule="nonzero" d="M0 1.743v33.114h19.032V7.764z"/><path d="M19.032 0v6.971L0 0h19.032zM81.317 0h1.73L70.884 17.429H59.687L22.492 6.668c.108-.39.244-.767.407-1.131l-.407-.113C23.724 2.184 27.296-.01 31.325 0h49.992z" fill="#13A89E" fill-rule="nonzero"/><path d="M56.513 19.209l-5.53-1.624-30.204-8.87v.25c0 4.766 4.349 8.63 9.713 8.631h-9.73v17.261h30.08c4.216 0 7.951-2.417 9.245-5.982 1.293-3.566-.15-7.466-3.574-9.653v-.013z" fill="#E05E5E" fill-rule="nonzero"/><path d="M86.18 0l14.17 19.878-14.126 2.78-.34-.094-.48.093-12.737-3.432.166-.23-.166-.044L86.18 0z" fill="#13A89E" fill-rule="nonzero"/><path fill="#E05E5E" fill-rule="nonzero" d="M100.972 22.083L84.73 25.705l-15.413-4.79-8.761 13.942H109z"/></g></svg>