<svg version="1.0" xmlns="http://www.w3.org/2000/svg" width="283.46" height="283.46" viewBox="0 0 283.46 283.46"><path fill="#FFF" d="M275.604 152.358c.65-3.348 3.281-5.923 3.342-9.742.119-7.447-.287-15.08-1.209-22.69a8.482 8.482 0 00-.459-1.903c-.395-1.076-.959-3.226-1.557-5.501-.637-2.416-1.355-5.155-2.221-8.013-1.594-5.382-3.547-10.64-5.527-14.921a8.468 8.468 0 00-1.527-4.455c-1-1.432-2.191-3.935-3.451-6.585l-.316-.663c.654-1.8.697-3.842.123-6.101a8.417 8.417 0 00-.67-1.771c-3.738-7.317-8.246-12.623-12.186-16.871a312.044 312.044 0 00-4.32-4.503c-2.439-2.509-4.742-4.877-7.072-7.565a8.271 8.271 0 00-.471-.502c-4.598-4.509-7.168-6.328-9.217-7.681l-.123-.08a88.373 88.373 0 00-2.221-1.353c-.979-.583-2.09-1.243-3.75-2.315a8.524 8.524 0 00-2.438-1.076 10.086 10.086 0 00-2.279-.347 549.48 549.48 0 00-5.846-3.888l-3.467-2.277c-2.643-1.734-4.928-3.232-7.254-4.688-2.76-1.717-5.859-3.556-9.801-5.363-2.73-1.253-6.365-2.817-10.277-3.805a12.408 12.408 0 00-3.039-.377c-.566 0-1.07.037-1.498.083-1.021-.479-2.537-1.08-4.434-1.237-1.375-.114-2.848-.226-4.416-.226-.18 0-.357.001-.537.004l-.533-.104c-2.99-.755-5.859-.899-8.402-1.025-2.721-.342-5.477-.61-8.201-.801-2.305-.25-4.133-.362-5.906-.362-.469 0-.939.009-1.408.026a141.343 141.343 0 00-12.391.296c-11.406.787-22.35 2.978-32.525 6.508a8.618 8.618 0 00-1.529.708c-1.423.838-2.899 1.463-4.986 2.319-.273.112-1.058.292-1.629.423-.977.224-2.084.477-3.26.88-4.129 1.403-9.045 3.608-13.488 6.051a8.887 8.887 0 00-.604.365l-.092.061c-1.552 1.03-3.312 2.197-4.713 3.188-1.533 1.084-4.524 3.199-5.477 6.52a149.49 149.49 0 00-7.998 5.865 170.997 170.997 0 00-7.717 6.428c-.975.865-1.941 1.74-2.899 2.629-.824.174-1.628.451-2.382.825-2.713 1.347-4.217 3.62-5.023 4.841l-.166.253c-.509.67-1.043 1.317-1.576 1.966-.856 1.042-1.742 2.12-2.624 3.347-5.593 7.772-9.772 14.585-13.153 21.438-3.82 7.742-6.918 15.773-9.21 23.871-1.356 4.796-2.204 8.97-2.29 14.076-.076 4.501-.037 8.272-.404 12.604l-.179 2.115c-.207 2.456-.37 4.396-.569 6.038-.321 2.874-.69 4.677-1.081 6.587l-.204 1.008a67.48 67.48 0 00-.246 1.332 8.588 8.588 0 00-.113 1.915 139.623 139.623 0 005.159 30.828c.053.184.111.365.176.545.356.986.726 2.043 1.112 3.144.513 1.462 1.053 3.001 1.613 4.542 1.784 4.948 3.706 9.701 5.402 13.368 1.422 3.092 3.457 7.189 5.079 9.149a9.932 9.932 0 001.337 1.331c.534 2.357 1.86 4.471 2.846 6.042 1.609 2.57 3.562 5.223 4.327 6.243.196.262.407.512.632.749 3.658 3.863 7.013 6.467 10.232 8.725.506 2.241 1.797 4.001 2.527 4.996.246.335.516.65.807.945 3.258 3.299 6.133 5.777 8.83 7.604 2.412 1.613 4.08 2.233 5.5 2.703l.104.034c.632.205.845.274 1.63.724 1.084.61 2.949 1.861 5.773 3.755l1.449.97c3.536 2.305 7.762 4.738 11.879 6.843 3.838 1.973 8.16 3.965 12.836 5.918.957.401 1.873.779 2.732 1.134l.536.222a8.492 8.492 0 005.188 4.03c2.016.545 3.992 1.109 5.959 1.671 3.878 1.107 7.889 2.253 12.114 3.22 6.724 1.527 12.554 2.239 18.345 2.239a68.57 68.57 0 003.771-.104 8.406 8.406 0 001.447-.205c2.457-.566 4.006-1.488 5.174-2.372.791-.178 2.543-.466 6.32-.919 4.162.48 6.623.695 9.354.695.928 0 1.889-.026 3.033-.086 2.5-.159 5.084-.482 8.137-1.019a120.24 120.24 0 0010.67-2.395c2.379-.643 4.617-1.513 6.594-2.28.498-.194.994-.387 1.49-.575a89.09 89.09 0 002.131-.848c.369-.15 1.512-.606 1.512-.606 3.238-1.254 4.863-3.215 5.66-5.062l.213-.088c3.018-1.267 6.121-2.86 9.477-4.864 5.646-3.355 11.031-7.39 14.553-10.183.254-.201.523-.442.752-.672a12 12 0 00.684-.73c.09-.056.18-.112.268-.171a8.435 8.435 0 001.189-.941c2.918-2.772 4.17-4.523 5.395-6.368.227-.342.453-.688.777-1.125.398-.546 1.119-1.482 2.811-3.346.531-.589 1.133-1.245 1.818-1.988 1.359-1.479 3.033-3.3 5.086-5.623a136.107 136.107 0 004.834-4.382 8.51 8.51 0 00.934-1.047c10.816-14.359 18.678-31.614 22.729-49.871.775-3.443 1.885-7.295 2-10.833.098-3.02-1.1-3.572-1.729-6.018a7.662 7.662 0 01-.112-3.427z"/><path fill="#E74027" d="M194.723 261.352l.473-.186c1.195-.464 1.404-.848-.084-1.001.098-.335.172-.594.213-.963-.115-.012-.225-.02-.338-.037-.492-1.636 4.754-2.595 5.859-3.059 2.912-1.224 5.715-2.716 8.424-4.334 4.715-2.802 9.535-6.302 13.615-9.536.193-.193.395-.387.475-.617-.6.168-1.684 1.274-2.299 1.123-.799-.197-.059-.93.391-1.324 1.199-1.06 2.438-.336 3.754-1.2 3.33-3.163 3.697-4.373 5.16-6.343.723-.99 1.699-2.192 3.357-4.018 1.648-1.833 3.982-4.29 7.234-7.987a128.037 128.037 0 004.965-4.48c10.299-13.671 17.521-29.924 21.227-46.622a132.434 132.434 0 001.977-10.994c-2.285.447-4.111.793-4.459.874-5.844 1.464-11.996 2.745-17.746 4.529-7.092 2.209-14.203 4.441-21.387 6.53-9.969 2.928-19.793 6.252-29.76 9.188-1.598.453-2.842 1.034-4.482 1.287-2.039.348-3.951 1.205-6.045 1.592-2.057.395-4.209.807-6.287 1.22-2.152.415-4.457 1.021-6.703.812-.99-.09-1.99-.588-2.953-.812-1.645-.372-3.332-.977-4.951-1.46-2.389-.726-5.129-.864-7.316-2.124-2.061-1.194-3.652-2.132-6.041-2.848-3.887-1.169-7.697-2.194-11.366-3.677-3.833-1.583-7.153-1.416-11.107-1.525-4.415-.122-9.292-2.465-13.445-3.824-17.676-5.815-35.358-11.635-53.036-17.436-3.398-1.131-6.687-2.413-10.125-3.319-1.545-.405-3.076-1.028-4.604-1.534-4.606-1.514-9.496-2.736-13.906-4.758-.432-.191-1.348-.66-1.332-1.188.053-1.641 4.645.125 5.442.325 1.429.358 2.854.716 4.271 1.082 2.278.854 4.546 1.704 6.818 2.567 1.748.641 3.499 1.311 5.245 1.971 1.358.512 3.732 1.964 5.069.897.375-.317.637-.932 1.222-1.187 2.496-1.081 5.919.869 8.234 1.776 2.649 1.01 5.3 2.032 7.952 3.062 3.22 1.237 6.492 2.389 9.672 3.725 1.293.568 1.874 1.048 3.369.814 1.359-.219 2.675-.689 4.02-.179.974.354 1.95.984 2.895 1.417 1.372.646 2.737 1.294 4.116 1.927 2.251.576 4.513 1.147 6.766 1.725.962.242 6.849 2.291 7.417.984.513-1.175-11.925-4.735-13.106-5.107-3.74-1.195-7.489-2.384-11.228-3.57-1.908-.604-3.875-1.112-5.738-1.818-1.341-.517-2.113-.969-3.604-1.178-1.062-.158-2.163-.646-3.189-.987-2.223-.687-4.442-1.403-6.665-2.111-4.44-1.408-8.886-2.811-13.331-4.217-4.692-1.51-9.535-2.814-14.049-4.767a57.265 57.265 0 00-9.383-3.229c-3.438-.861-6.78-2.186-10.289-3.106-2.856-.757-5.707-1.476-8.558-2.23-.023-.005-.046-.014-.069-.02-.301 3.507-.506 6.198-.77 8.373-.421 3.763-.932 5.993-1.389 8.265-.074.386-.146.777-.215 1.173a130.707 130.707 0 004.844 28.948c.826 2.293 1.729 4.949 2.725 7.684 1.591 4.412 3.426 9.02 5.129 12.7 1.693 3.684 3.214 6.446 3.904 7.281.114.132.205.236.367.243.16-.99-.437-1.95-.707-2.861-.128-.434-.73-.782.092-.799.666-.013.943.789 1.273 1.226.797 1.055 1.928 2.184 2.506 3.36 1.889 3.839 3.084 6.373 3.107 7.176.038.794-1.141-.125-3.541-3.5-.151.188.607 1.629 1.742 3.437 1.132 1.809 2.658 3.967 3.924 5.658 4.924 5.199 9.173 7.738 14.01 11.07a126.935 126.935 0 006.949 5.788c2.156 2.411 2.412 3.001 1.598 2.693-.811-.311-2.647-1.563-4.516-2.954-3.734-2.767-7.584-6.13-4.598-2.061 3.531 3.576 5.895 5.419 7.507 6.511 1.622 1.084 2.527 1.396 3.4 1.685.876.284 1.723.544 3.279 1.435 1.563.881 3.817 2.416 7.692 5.011 3.025 1.972 6.969 4.28 11.125 6.403 4.152 2.135 8.512 4.084 12.236 5.64 3.723 1.562 6.803 2.759 8.338 3.609 1.534.841 1.52 1.389-.952 1.408 6.007 1.623 11.671 3.42 17.739 4.809 6.054 1.375 12.529 2.334 19.767 1.937 1.948-.449 1.968-1.11 3.185-1.713 1.213-.637 3.615-1.083 10.215-1.854 5.709.671 8.123.879 11.855.685 1.867-.118 4.076-.357 7.195-.905a112.018 112.018 0 009.934-2.23c2.473-.668 4.893-1.688 7.283-2.596 1.047-.399 2.076-.837 3.117-1.25z"/><path fill="#00A099" d="M269.293 120.949c-1.01-2.754-2.184-8.195-3.945-14.025-1.729-5.834-4.08-12.031-6.404-16.427l.535-.488c-1.674-2.392-3.234-5.887-4.98-9.519-1.734-3.632-3.654-7.401-5.697-10.316a125.467 125.467 0 00-3.148-5.598c-.285-1.322 2.611 2.257 5.07 5.672 2.471 3.395 4.586 6.58 3.836 3.634-3.189-6.241-7.012-10.819-10.828-14.935-3.846-4.116-7.691-7.789-11.604-12.305-4.141-4.061-6.264-5.545-7.945-6.654-1.707-1.085-3.023-1.766-6.023-3.701-1.881-.498 1.48 1.896.396 2.112-5.205-3.675-9.279-6.31-12.678-8.556-3.406-2.23-6.152-4.05-8.879-5.755-2.73-1.698-5.441-3.289-8.855-4.855-2.818-1.293-5.801-2.528-8.812-3.289-1.406-.355-2.361.221-3.719.068-1.391-.155-2.443-1.251-3.877-1.37-1.504-.125-3.033-.238-4.543-.182-.137.004-.264.01-.387.016l-1.729-.335c-2.338-.623-4.812-.725-7.27-.847-2.766-.354-5.504-.62-8.213-.807-2.154-.237-4.314-.398-6.471-.301-4.035-.085-8.004.006-11.894.273-10.753.742-20.929 2.798-30.322 6.058-1.985 1.17-3.938 1.983-6.079 2.862-1.663.682-3.646.893-5.377 1.485-3.492 1.187-7.926 3.142-12.127 5.451-3.441 2.282-7.857 5.205-6.488 4.962-.283.406 1.371-.606 3.871-2.064 2.498-1.463 5.876-3.317 8.926-4.759 3.047-1.447 5.748-2.5 6.76-2.66 1.019-.151.302.508-3.246 2.793-9.871 4.587-19.438 10.585-27.548 16.961a161.881 161.881 0 00-7.33 6.106 175.019 175.019 0 00-3.403 3.1c-.581.545-1.439 2.287-2.346 2.02-.07-.662-.891-.661-1.393-.412-.898.446-1.615 1.854-2.201 2.624-1.323 1.74-2.789 3.355-4.066 5.132-4.643 6.45-8.909 13.096-12.431 20.232-3.552 7.2-6.467 14.698-8.653 22.425 5.229 1.851 10.486 3.802 16.306 6.023 6.168 2.357 12.431 4.461 18.728 6.453 5.408 1.726 10.967 2.913 16.258 4.95 10.905 4.202 22.674 6.665 33.838 10.339 4.678 1.535 11.706 3.851 16.396 5.396 2.47.812 4.755 2.092 7.212 2.915 2.98 1.017 6.007 1.749 8.96 2.877 5.023 1.911 10.148 3.714 14.973 6.033 4.648 2.252 9.193 3.93 14.119 5.312 4.715 1.324 9.334 3.52 14.355 2.557 3.547-.659 6.91-1.794 10.311-2.807 2.287-.672 4.717-.604 7.018-1.146 2.719-.666 5.115-1.9 7.959-2.494 6.834-1.422 13.764-2.35 20.537-4.097 3.275-.848 6.328-2.169 9.621-2.91 3.672-.833 32.227-9.77 32.979-6.536-2.668 1.417-3.873 1.072-7.309 1.901-3.133.734-6.098 2.225-9.248 2.966-3.545.843-6.896 1.945-10.445 2.811-3.223.79-7.256 1.441-10.01 3.283-1.041.683-1.654 1.592-2.91 2.111-1.5.613-3.408.649-4.936 1.091-2.346.683-5.527 2.192-7.414 3.783 3.172-.42 6.775-1.581 9.988-2.436 4.053-1.067 8.275-1.999 12.465-2.8 3.984-.766 7.867-2.132 11.812-3.059 3.691-.876 7.449-1.34 11.098-2.215 3.371-.796 6.643-1.775 10.008-2.598.116-7.295-.3-14.512-1.152-21.529z"/><g fill="#FFF"><path d="M49.747 68.815c.632-.174.945-.26 1.582-.429-.2.621-.295.936-.479 1.579 1.082-.244 1.818-.718 2.211-1.426l.537-.13c.275.185.415.279.699.478-.67.93-1.004 1.392-1.672 2.313.222-.039.334-.06.556-.098-.296.187-.442.28-.739.466-.073.147-.111.221-.186.368l.377.284-.182.375-.562.083c.152.115.229.171.382.29l-.18.377c-2.588 4.992-3.803 7.543-6.062 12.735-.061.157-.094.238-.154.396l.621.048a236.232 236.232 0 003.363-3.921l1.215.031c-2.852 3.079-4.288 4.551-7.16 7.343l1.267.162c4.974-5.11 7.468-7.897 12.362-13.836-.473.026-.708.038-1.178.065a245.917 245.917 0 01-4.381 5.455l-1.212-.017.155-.405c2.682-2.582 4.015-3.936 6.646-6.748l.582-.049c-.125.339-.186.509-.308.848 2-.466 2.998-.706 4.996-1.192 1.431.336 2.094.771 1.957 1.244.292-.195.438-.294.729-.491.714-.034 1.072-.052 1.789-.082-.282 4.549-.358 6.932-.407 11.904.252.022.377.033.629.057 4.42-9.262 10.193-18.005 15.221-26.947l.574-.089c.098.595.145.894.247 1.499.231-.03.349-.044.581-.075l.211-1.064c.23-.032.344-.049.574-.08 2.846-.395 4.31-.016 4.356 1.08l-.185 1.121c-.58.718-.871 1.073-1.457 1.782l-.092.56c.475-.036.71-.056 1.186-.09l1.224-3.996c.468-.05.705-.073 1.175-.121.398.407.602.614 1.006 1.033l-.085.574c-6.609 14.809-13.536 29.426-21.181 43.732-.832.024-1.247.037-2.08.054.067-.444.102-.665.17-1.108-.299.156-.451.23-.751.384l-.667-.165c-.23-.286-.346-.429-.576-.712-.234 1.454-1.073 2.041-2.349 1.657-3.435-1.035-5.196-2.158-5.048-2.938.266.066.397.101.663.166-.124-1.82-.769-3.198-1.941-4.139-.133-4.581-.151-6.781-.073-10.994-.722-.055-4.424 4.275-11.114 11.437-1.552.57-2.331.84-3.894 1.344l-.662-.174c-.077-.748-.113-1.119-.18-1.851 8.8-5.409 15.271-15.479 15.271-15.479-.07-.061-7.428 10.673-12.179 12.129-.276.084-1.929 1.427-4.12 4.435-2.387-.613-3.578-.92-5.961-1.527-.054-.678-.078-1.011-.122-1.672-.317.089-.474.129-.79.215l-.662-.156c.5-1.328.236-2.446-.795-3.305a82.8 82.8 0 01.615-1.403c.838.596 1.262.905 2.119 1.542.481-2.593.762-3.846 1.402-6.264.314-.117.472-.176.785-.295-.18-.162-.268-.244-.447-.402l.781-.301-.613-.046c.314-.121.471-.18.784-.304.95-1.961 1.446-2.932 2.475-4.843.604-.688.909-1.033 1.516-1.729l-.585.03c.309-.147.463-.223.771-.372 1.951-3.548 2.993-5.277 5.197-8.637a18.636 18.636 0 00-.318-.187l.215-.318c.809-.42 1.212-.633 2.015-1.068zm32.468-6.251c-4.869 8.884-10.594 17.639-14.571 26.972l-.105.52.636.076A736.72 736.72 0 0083.374 62.42c-.465.056-.696.085-1.159.144zM71.069 96.062c-.854 1.883-1.281 2.818-2.131 4.678-.072.438-.107.659-.178 1.099l.658.149a2136.98 2136.98 0 002.21-5.259l.094-.552-.653-.115zm6.115-12.728a1162.69 1162.69 0 01-2.129 4.849l-.095.549.639.072a808.946 808.946 0 002.116-4.874c.038-.221.06-.333.098-.554-.252-.017-.379-.024-.629-.042zM115.696 61.53c4.504-.253 9.346 1.825 13.602 5.567-.261.27-.389.405-.65.673-.008.289-.018.431-.023.721a586.204 586.204 0 012.457 4.638c-.517-.058-.773-.087-1.289-.143-.25-.321-.371-.48-.62-.799l-.642-.063c.59 6.488.881 9.8 1.438 16.562l.657.112c.086-2.518.559-3.698 1.434-3.561-.036 1.208-.051 1.812-.09 3.023-.09 2.855-2.482 9.143-7.482 18.431.268.062.404.094.672.154-3.405 4.208-8.383 7.588-14.926 9.904-1.367-.076-2.05-.113-3.418-.196-.27-.075-.404-.114-.674-.188-8.787-2.218-16.818-8.208-18.829-17.422a527.444 527.444 0 00-2.177-4.15c.291-.2.435-.305.725-.507-.049-1.749-.07-2.614-.109-4.332l.156-1.204c.435-3.319 4.697-8.596 12.24-17.062l-.068.622c-3.488 4.037-6.55 8.378-9.143 13.094-.031.243-.047.367-.076.609l.639.063c4.072-8.916 12.229-16.099 19.289-22.595a335.651 335.651 0 01-4.52 2.583l-.617.001c.179-1.94 4.654-4.12 12.044-4.535zM87.839 88.982c-.243 1.949-.362 2.932-.599 4.898.26.041.389.059.65.099.233-1.976.352-2.959.59-4.917-.257-.031-.384-.049-.641-.08zm9.31-7.874a288.378 288.378 0 01-2.316 3.621c.256.025.385.041.642.066a272.667 272.667 0 002.312-3.636c-.255-.02-.384-.032-.638-.051zm14.724-8.223l-.585-.71-.045.672.586.718a243.53 243.53 0 01-4.731 3.721c-3.515-.264-9.442 6.812-11.962 17.205-.703 2.907 1.326 6.829 5.088 10.434l.666.147c4.854 1.076 11.914-3.212 17.661-13.061 2.606-4.468 3.73-8.672 3.837-11.108.102-2.312.148-3.463.242-5.751.055-1.319-2.047-2.491-6.241-3.349l-.634-.041-.674.646-.635-.043.041-.684c-1.044.485-1.567.726-2.614 1.204zm-15.882 33.833l-.062.668a271.598 271.598 0 013.166 2.84c.023-.273.033-.41.057-.683a317.876 317.876 0 00-3.161-2.825zm22.361-11.07a263.511 263.511 0 01-2.861 3.139l.664.127a271.367 271.367 0 002.857-3.147c-.264-.049-.396-.071-.66-.119zm3.703-7.481a480.642 480.642 0 01-3.004 6.87c.793.142 1.188.214 1.982.358.9-1.918 1.346-2.883 2.23-4.817-.222-.929-.332-1.391-.554-2.311-.26-.041-.392-.059-.654-.1zm4.473 3.713c-.301.852-.452 1.278-.756 2.128-.026.598-.041.898-.068 1.498l.662.123c.318-1.153.477-1.73.791-2.885.013-.3.02-.449.031-.749-.264-.044-.396-.069-.66-.115zm3.81-15.137c.52.063.775.096 1.294.163-.036 1.485-.054 2.23-.095 3.726-.521-.074-.783-.11-1.303-.182.044-1.489.065-2.229.104-3.707zM147.53 63.686c3.062.412 4.586.643 7.625 1.148 8.916 3.516 13.557 9.433 13.801 17.086.062 1.961.092 2.946.141 4.922a355.7 355.7 0 01-6.375 9.96l.656.16a425.842 425.842 0 006.459-5.834c.012.662.016.995.027 1.66-2.107 5.755-4.994 9.207-8.498 10.316l-4.006.663c-.02 1.323-.033 1.986-.059 3.315 5.963 7.537 8.975 20.171 13.461 26.124 1.094 1.452 3.525 3.528 5.213 6.915l-.039.871a511.83 511.83 0 01-3.322-2.925l-.041.876c2.18 2.724 3.225 4.845 3.137 6.424l-.697.124c-1.459 1.304-2.225 2.465-3.645 3.087-.27-.089-.406-.135-.678-.223-.477-1.239-.715-1.856-1.193-3.09l-.73.663-.678-.221c-6.908-10.764-13.551-21.523-17.656-33.723a679.433 679.433 0 00-3.123-8.987c-1.576-.366-2.828 2.898-2.996 9.079-.143 5.253-.297 9.024-1.096 9.758-1.059.977-1.68 2.195-.871 3.77-.033.658-.053.986-.088 1.646l-2.028-.595c-.903-.265-1.294-1.484-1.183-3.65-.271-.077-.406-.119-.676-.195-.111 2.161-1.008 2.726-2.676 1.699a523.343 523.343 0 00-2.732-5.546 874.69 874.69 0 001.146-7.019c.058-1.265.084-1.895.141-3.153 1.992-8.431 2.943-12.649 4.715-21.039l.66.12c-.027 1.242-.039 1.863-.068 3.11.264.051.397.077.664.127a644.98 644.98 0 003.504-15.724c-.869-.133-1.311.824-1.326 2.877a126.1 126.1 0 01-.65-.104c.004-.615.006-.922.012-1.535a291.475 291.475 0 00-3.903-.569l.011-.756c.013-1.008 1.314-1.594 3.912-1.733l.004-.764-1.295-.18c-1.558.396-2.335.596-3.895.997-.26-.033-.391-.052-.649-.085.015-.999.88-1.396 2.604-1.173.002-.301.004-.448.008-.75-1.723-.221-2.569-1.069-2.551-2.558 4.647-2.157 6.969-3.242 11.522-5.366zm-9.403 30.941c-.037 1.248-.053 1.874-.09 3.128l.665.137c.038-1.256.054-1.882.088-3.132l-.663-.133zm1.559-9.85c.266.045.395.07.659.116-.022 1.237-.032 1.854-.058 3.099l-.662-.118c.026-1.242.04-1.862.061-3.097zm1.408-6.716l.654.1c-.01.923-.016 1.387-.025 2.312a852.384 852.384 0 01-.697 2.982l-.658-.111c.016-.927.023-1.388.037-2.311.278-1.188.417-1.783.689-2.972zm7.106 13.837l.66.135c6.988-2.568 11.746-5.842 14.357-9.815-.012-.649-.021-.975-.035-1.621-.045-1.838-2.656-4.318-7.83-7.147-1.529.347-2.299.52-3.844.877-1.22 6.979-1.884 10.502-3.308 17.571zm9.283 32.143l-.033.846a530.052 530.052 0 012.557 4.198c-.762-2.844-1.61-4.514-2.524-5.044zm5.793-38.573a342.855 342.855 0 01-3.199 4.966c.262.059.393.091.654.15a351.693 351.693 0 003.209-4.154l-.014-.812-.65-.15zm-2.16-10.902c.916 2.583 1.811 4.114 2.672 4.557l-.047-1.612a445.213 445.213 0 00-2.625-2.945zm-.51 56.432l-.039.86a607.986 607.986 0 012.582 3.413l.039-.867a605.808 605.808 0 00-2.582-3.406zm4.482-50.78a476.95 476.95 0 01-.547 3.914c.258.059.389.091.646.149l.625-.666a846.442 846.442 0 00-.082-3.255l-.642-.142zm4.692 8.431c.518.129.773.193 1.289.324-.232.927-.348 1.391-.588 2.319-.258-.065-.387-.1-.645-.164-.021-.994-.033-1.489-.056-2.479z"/><path d="M182.249 68.525c.826.048 1.387 1.61 1.648 4.719.502.022.752.034 1.252.059.695-.582 1.039-.868 1.725-1.436.277.321.42.479.697.8.357 14.938-.082 29.892-1.184 44.791 2.887-1.953 10.621-4.686 22.789-7.39.266-.016.398-.021.664-.036l.043.756c-15.408 3.778-23.492 7.334-23.502 9.16a411.535 411.535 0 017.488-3.226c.004.324.006.484.008.81 5.156-1.798 7.709-2.65 12.764-4.247.01.307.02.461.031.768.256-.327.387-.49.643-.814.27-.02.4-.031.668-.05l.701.713c1.332-.402 1.996-.601 3.32-.988 1.07-.071 1.604-.105 2.672-.174 1.889.177 2.83.267 4.715.439l.051.726c.092 1.451-3.182 2.882-9.922 4.521l.021.765c.262-.331.393-.499.656-.828l.676-.061c1.906.133 2.855.198 4.76.325l.646-.803c.037.89.057 1.339.086 2.231-8.859 3.241-13.387 5.039-22.537 8.892-5.84 3.407-8.803 5.2-14.766 8.9-.838.135-1.254.199-2.09.333-1.039-1.558-1.562-2.341-2.605-3.913l-.695.106c.016-.348.021-.522.035-.87.055-1.47 1.008-2.479 2.861-3.01.033-1.036.047-1.551.076-2.585l-1.984-3.175c1.086-12.66 2.004-25.307 2.396-38.012l.65-.016c.055 1.302.078 1.955.127 3.265-.18 2.299-.271 3.458-.479 5.786.529-.027.793-.041 1.324-.066-.41 4.307-.641 6.486-1.145 10.891l.68.781c-.26 1.363-.393 2.047-.662 3.421.002 1.686 0 2.533-.01 4.228l.68-.07c.947-14.455 1.369-28.948 1.166-43.435.836.029 1.191-.74 1.062-2.301l.557-.748c.5.027.746.039 1.243.068z"/><path d="M220.77 73.809c.92.191 1.379.289 2.291.487.826.645 1.236.964 2.066 1.601 1.531.098 2.287.155 3.791.292 8.943 2.78 15.406 8.962 22.328 14.944a486.657 486.657 0 005.025 5.617l-.398.443c.637 1.067.951 1.6 1.574 2.666.377 1.043.559 1.569.916 2.623 4.492 13.218-15.248 20.778-23.66 25.049-2.736.645-4.105.972-6.855 1.644-.025-1.208-.965-1.799-2.801-1.789.027 1.158.037 1.738.051 2.9-.828.119-1.24.181-2.068.3-.016-1.761-.031-2.64-.074-4.389-.281-.259-.422-.387-.703-.647.266-.324.396-.486.66-.81-.01-.291-.01-.437-.02-.729-2.795-1.683-4.248-3.318-4.271-4.697-.254-14.707-.656-30.259.006-45.333l.58.111c.297.301.441.451.738.75.334-.42.5-.625.824-1.033zm.813 52.56l.686-.086.018.732c-.537.656-.809.984-1.35 1.65l-.689.095-.01-.742 1.345-1.649zm-1.59-46.572c.486 7.384.539 11.263.268 19.325.037.278.053.416.088.694.256.003.387.008.643.01.311-7.771.291-11.51-.115-18.638-.113-.521-.172-.781-.289-1.301-.24-.035-.355-.054-.595-.09zm8.922 41.422c.318.814.477 1.22.789 2.031.543-.061.814-.09 1.357-.149.518-.615.775-.92 1.281-1.525l-.045-.688c-.27.025-.404.04-.674.066-.795.355-1.195.533-1.994.897l-.714-.632zm1.656-35.586c.213.822-1.889.746-2.084.924-1.639 1.487-.84 26.318.6 27.651.523.487 9.201-3.093 18.693-7.048a62.756 62.756 0 00-.125-.594c-.51-.004-.766-.005-1.275-.007 2.738-3.259 3.488-6.325 2.467-9.61-.209-.67-.314-1.003-.529-1.669-1.322-4.068-5.135-6.913-11.244-8.649a290.685 290.685 0 00-6.503-.998zm3.705 34.377c.021.272.027.409.047.681l2.703-.26c1.307-.662 1.957-.989 3.248-1.626-.025-.261-.039-.391-.066-.651-.268.021-.4.032-.668.055a293.689 293.689 0 00-5.264 1.801zm8.049-32.482l.195.56c1.086.608 1.627.909 2.719 1.504-.078-.219-.115-.327-.197-.546-.855-.56-1.283-.844-2.137-1.413a64.702 64.702 0 00-.58-.105zm6.875 27.463c1.012-.204 2.377-1.52 3.939-3.762-.047-.232-.068-.349-.117-.581a1016.957 1016.957 0 00-3.822 4.343zm1.718-10.689c-.271.9-.414 1.357-.713 2.284l.639.008c.295-.922.436-1.378.703-2.272l-.629-.02zm-.621-8.264a94.46 94.46 0 011.424 6.609c.498.023.748.036 1.246.062-.191-.669-.291-1.002-.49-1.665a71.63 71.63 0 00-.07-2.152 237.96 237.96 0 00-1.51-2.786c-.238-.028-.359-.041-.6-.068zm5.696 4.722c-.078 3.321-.211 5.063-.646 8.698.055.226.078.34.129.567l.646-.01c.494-3.4.666-5.03.836-8.144-.139-.427-.211-.638-.355-1.062-.245-.017-.366-.029-.61-.049z"/></g><g fill="#FFF"><path d="M32.734 151.848l6.213 2.02c7.24 3.653 10.765 7.864 10.903 12.486.035 1.184.061 1.773.117 2.95a184.89 184.89 0 00-4.516 5.015l.498.182c1.814-1.006 2.746-1.524 4.657-2.578.024.391.036.585.063.976-1.467 3.102-3.323 4.7-5.758 4.869a344.146 344.146 0 01-2.811-.162c.113.752.17 1.127.291 1.875.705.272 4.635 8.314 12.305 15.988 1.017 1.017 2.865 2.723 4.529 5.14.039.182.061.273.101.455-1.093-1.099-1.642-1.649-2.736-2.753l.101.452c1.912 2.23 2.957 3.744 3.148 4.553-.185-.075-.276-.115-.461-.19-.795.161-1.188.242-1.963.392-.184-.076-.273-.116-.457-.194-.504-.687-.759-1.033-1.262-1.723l-.344.254a88.657 88.657 0 01-.455-.194c-6.219-6.178-12.037-12.89-16.635-20.376a440.284 440.284 0 01-3.311-5.566c-1.141-.448-1.594 1.355-.762 4.721.742 3.001 1.275 5.014.963 5.262-.455.36-.633.955.174 1.929.108.353.162.527.273.878-.545-.248-.814-.374-1.357-.624-.605-.277-1.104-.995-1.469-2.165l-.457-.208c.37 1.17-.049 1.338-1.28.521-1.143-1.394-1.711-2.09-2.851-3.484a73.761 73.761 0 01-.688-3.77 94.976 94.976 0 01-.488-1.778c-.216-4.513-.16-6.845.271-11.63.198.073.295.112.493.186.106.748.162 1.121.28 1.865.197.074.297.109.494.185.373-3.538.652-5.344 1.389-9.022-.678-.234-.976.289-.865 1.56-.202-.07-.302-.107-.504-.179-.035-.381-.053-.571-.083-.952-1.216-.426-1.821-.637-3.035-1.064l-.043-.476c-.056-.634.92-.755 2.937-.374l-.029-.479c-.406-.139-.613-.211-1.02-.352a354.68 354.68 0 01-2.981-.099l-.507-.177c-.054-.633.6-.715 1.959-.247a37.23 37.23 0 01-.033-.479c-1.361-.466-2.076-1.175-2.133-2.129a479.12 479.12 0 009.135-1.29zm-5.264 17.506c.134.737.204 1.105.349 1.839l.484.193c-.143-.735-.213-1.104-.346-1.842-.195-.075-.291-.115-.487-.19zm.054-5.678c.199.074.299.108.498.181.096.753.146 1.131.252 1.88-.198-.073-.299-.11-.497-.185a104.45 104.45 0 01-.253-1.876zm.542-3.893c.202.07.302.106.505.178.05.571.078.857.135 1.427-.125.688-.186 1.03-.298 1.713l-.501-.183c-.066-.566-.1-.851-.16-1.418a78 78 0 01.319-1.717zm6.346 9.578c.198.074.298.108.495.182 4.883-.445 8.387-1.734 10.396-3.767-.019-.392-.028-.587-.044-.979-.044-1.116-2.116-2.958-6.251-5.507-1.219-.021-1.825-.036-3.035-.063-.828 4.13-1.14 6.161-1.561 10.134zm10.269 19.536l.106.455c.921 1.039 1.381 1.56 2.301 2.596-.931-1.619-1.73-2.642-2.407-3.051zm.722-21.168a189.766 189.766 0 00-2.273 2.509l.502.179c.904-.801 1.365-1.205 2.307-2.023-.012-.195-.017-.293-.027-.488-.204-.072-.306-.107-.509-.177zm-1.78-6.896c.714 1.719 1.427 2.768 2.112 3.152-.012-.395-.017-.59-.026-.984l-2.086-2.168zm4.149 32.211l.108.451 2.191 2.132c-.045-.181-.065-.271-.11-.451l-2.189-2.132zm-1-28.218c-.172.915-.254 1.37-.408 2.278.203.07.307.103.51.173l.484-.314a127.33 127.33 0 01-.074-1.967c-.205-.07-.307-.101-.512-.17zm3.753 5.633l1.013.348c-.172.519-.258.775-.424 1.291l-.507-.176c-.036-.586-.05-.876-.082-1.463z"/><path d="M75.034 163.408c.337.396 1.522 2.045 4.068 2.861 1.263 7.662 2.034 11.443 3.777 18.842 1.43.457 2.143.685 3.574 1.138.002.196.008.294.01.49a890.792 890.792 0 01-3.058-.482c.003.196.009.294.013.49 1.02.325 1.531.812 1.547 1.463 1.629.518 2.447.774 4.08 1.285l.008.488c.015.724-1.672.844-5.031.337.447 1.295.671 1.94 1.128 3.225-.175.514-.259.768-.43 1.279.263 1.216.395 1.823.669 3.03l-.466.315.498.157-.468.318c.359 2.343.553 3.504.961 5.809.105 1.121.162 1.676.281 2.787l-.539-.619-.49-.16a260.222 260.222 0 002.293 7.349l-.962-.313c-.126-.906-.506-1.469-1.147-1.68l.062.456c.268.609.402.914.671 1.52-.191-.063-.288-.097-.479-.159l-.542-.611a68.287 68.287 0 01-.483-.16c.131.906-.117 1.251-.753 1.036a296.123 296.123 0 01-3.486-8.587l-.485-.163c.094.742.141 1.113.24 1.851l-.485-.164a222.975 222.975 0 01-1.659-5.91l1.574 1.431c-.021-.187-.029-.279-.051-.467-.574-2.898-1.186-4.496-1.903-4.736l.452-.309c-.05-.569-.074-.856-.121-1.429-.398-.132-.594-.197-.991-.331.048.572.071.859.122 1.43-.197-.066-.297-.103-.495-.169-.069-.761-.104-1.141-.167-1.904.184-.125.279-.185.464-.311-.2-.066-.302-.102-.501-.168l-.461.312c-.064-.765-.092-1.146-.148-1.915l.5.168.535.645.498.166-.535-.646a180.067 180.067 0 01-.186-2.892 483.544 483.544 0 01-10.811-1.324c.036.383.057.575.096.957 1.348.104 2.023.154 3.383.249.812.466 1.222.698 2.034 1.161.979.147 1.468.221 2.452.364.029.385.045.578.076.961-6.877-1.15-9.852-.583-9.846 1.136.01 2.757-.965 4.927-1.858 5.44.067.369.101.553.17.92-.569-.218-.854-.33-1.421-.55l-.562-.643c-.188-.074-.284-.109-.474-.184l.09.46c-.641-.589-.959-.884-1.6-1.474.162-.951.249-1.43.436-2.394a57.85 57.85 0 01-.477-.184c-.957-.367-1.223.689-.717 3.124l-1.131-1.293a98.784 98.784 0 01-.064-2.568c-.674-.776-1.012-1.164-1.686-1.942 1.877-6.333 3.164-9.681 6.293-16.585l.51.172c.039.984.399 1.59 1.075 1.818.158-.913.241-1.371.415-2.29-.197.129-.297.192-.492.321l-.508-.169a161.27 161.27 0 01-.059-1.977c.179-.922.269-1.385.463-2.312l.518.666c.205.068.309.104.514.171l-.518-.667-.003-.5c.405-.662.606-.994 1.022-1.661l.516.17c.204.268.308.4.513.669l.516.169c.001-.2-.001-.301.001-.502.004-.668-.507-1.17-1.537-1.508a171.44 171.44 0 012.799-6.242c.831.268 1.246.399 2.078.667-.218.137-.326.207-.545.344l-.023.508c2.46-.584 6.216-.628 6.859.129zM60.18 179.981c-.146.708-.22 1.061-.356 1.765.2.069.302.104.502.175.337-.634.509-.953.859-1.593l-1.005-.347zm1.362-1.922l-.477.318c.021.392.033.587.059.977.201.069.3.105.501.175.165-.518.251-.777.422-1.297l-.505-.173zm3.136 2.99c-.158.712-.234 1.065-.382 1.773l.503.173c.188-.125.28-.189.469-.314-.037-.584-.054-.876-.086-1.461l-.504-.171zm2.295-5.549a147.636 147.636 0 00-.918 3.119l-.527-.662-.506-.172c.232.856.35 1.285.588 2.138l.507.171c.525-1.562.799-2.346 1.374-3.927-.003-.198-.003-.3-.007-.498-.204-.067-.307-.1-.511-.169zm4.588-1.469c-1.656 3.661-2.421 5.468-3.805 9.018.403.137.604.206 1.008.342 3.363 1.134 5.17.772 5.451-1.085a246.336 246.336 0 01-2.143-8.107 43.597 43.597 0 00-.511-.168zm-2.741 10.336l.028.485c.402.136.605.202 1.007.338 3 .693 4.493.705 4.466.055l-.506-.167c-2.006-.279-3.005-.42-4.995-.711zm7.805 12.926c.395.134.593.198.988.33.106 1.137.164 1.704.285 2.831l-.489-.165a218.264 218.264 0 01-.784-2.996zm2.462 5.365c.043.373.065.561.11.933.562.012.844.015 1.41.025a98.116 98.116 0 01-.104-.931c-.569-.009-.85-.017-1.416-.027zm4.767.221c.035.375.054.563.091.938.271.812.408 1.216.684 2.022l.489.158c-.039-.372-.057-.558-.095-.931-.271-.809-.405-1.214-.673-2.027-.197-.063-.299-.095-.496-.16zM101.135 174.362a488.938 488.938 0 003.463 4.14c.053-.994.429-1.382 1.121-1.163.208.065.314.1.521.166 2.496 8.062 3.854 12.005 6.682 19.625-.004.378-.004.564-.006.941-.206-.059-.312-.086-.518-.145a320.493 320.493 0 01-1.002-3.136l-.516-.149c-.006.381-.01.57-.014.951a338.48 338.48 0 003.602 8.971c.205.057.307.086.512.141 1.289-7.637 3.514-15.68 6.71-23.985.599.584.899.872 1.5 1.452.638.003.954.008 1.591.011 1.212.968 1.82 1.448 3.035 2.404l-.025.475c-1.041-.32-1.604.155-1.671 1.42l.522.156.495.63c.208.063.312.096.521.158.258-.881.389-1.32.651-2.203.417.127.622.192 1.038.32-.011.188-.015.282-.025.471l-.545.312.492.63c-.01.188-.018.282-.026.47-4.033 9.181-5.724 18.643-7.47 28.453l-1.014-.243c.326-2.737.507-4.119.896-6.907-.684-.173-1.033 5.421-2.874 7.752-.469.593-2.362.738-3.464.464l.041.886c-.2-.049-.299-.071-.5-.122-.029-.592-.713-1.056-2.047-1.396-.064-1.251-.093-1.88-.145-3.145-2.786-9.013-7.045-17.659-10.475-26.44l-.519-.158c-1.504 5.389-2.704 12.79-3.091 21.802l-.53-.61c-1.961-.041-2.892.434-2.812 1.43l-.992-.3c-.755-1.359-1.254-3.466-1.429-6.365l-.501-.154c.104 1.694.16 2.536.291 4.211l-.992-.304c-.273-.992-.406-1.49-.674-2.489-.621-10.882 2.477-20.116 6.001-30.239 1.678.323 2.516.484 4.192.811zm-7.722 10.156c-.002.197-.006.297-.008.494l.512.65-.52.332-.006.981.516.159c.209-.721.312-1.08.527-1.803l-.507-.653c-.207-.062-.307-.095-.514-.16zm19.504 13.553c.889.251 1.561 1.705 2.051 4.315v.464l-.512-.14a319.19 319.19 0 01-1.539-4.639zM140.391 185.952c.107 1.72.16 2.575.281 4.274.693.207 1.264-.542 1.719-2.255.207.065.312.099.521.163.166.791.246 1.188.416 1.973-.787 2.698-1.17 4.04-1.922 6.723a322.346 322.346 0 015.902-1.932c.209.06.312.09.521.148a295.56 295.56 0 00-6.482 3.12c-.006.178-.008.266-.016.443 4.922-1.727 7.395-2.553 12.342-4.076.197.233.299.348.496.58 4.844-1.787 8.055-2.312 9.625-1.821l.52.162c.17.727.256 1.088.426 1.809-1.738.81-2.605 1.226-4.344 2.08.207.06.311.092.52.151.754-.908 1.824-1.15 3.211-.742.197.226.299.335.498.56.01-.164.016-.242.023-.406-.197-.225-.299-.338-.498-.563l.545-.259c.625.187.934.282 1.559.468.18.551.273.82.453 1.367-2.664.188-17.895 3.8-18.746 5.95-.545 1.378 6.191 11.437 11.758 18.766l-.029.761-.609 2.574-.49-.447c-.201-.029-.307-.042-.508-.07-.223.578-.33.864-.551 1.441-.807-.11-1.211-.166-2.018-.28l.023-.765c-.201-.03-.303-.047-.506-.076l-.021.768c-.402-.058-.604-.085-1.01-.144.023-.907-3.566-5.904-10.924-17.224-.389-1.124-.582-1.69-.967-2.832l-2.615-.194c-.635 6.904-1.717 10.874-3.42 12.202l-.002.425a329.654 329.654 0 01-5.104-1.513c-.006-.518-.01-.776-.013-1.297.198-1.168.297-1.754.503-2.931-1.027-.235-1.695-1.415-1.53-3.003.271-2.578 1.179-4.175 1.749-4.032-.205-.23-.309-.347-.512-.578 1.177-7.957 2.506-12.773 3.633-14.147-.182-.613-.273-.92-.451-1.536a330.476 330.476 0 011.77-3.236l.027-.461c-.198-.25-.295-.378-.492-.629.012-.187.016-.278.025-.465.418.13.625.192 1.042.323a413.777 413.777 0 00-.19 3.246l.521.157c.239-.49.361-.736.602-1.227l-.496-.626c.012-.185.019-.274.029-.459.404-.818 1.473-.955 3.206-.408zm-4.457 3.788c-.268 1.044-.4 1.563-.662 2.604-.035.733-.053 1.101-.084 1.832l.521.147c.282-1.583.424-2.377.719-3.97.01-.184.016-.275.025-.459l-.519-.154zm15.137 4.024c.209.062.312.094.52.154-1.295.502-1.945.759-3.238 1.277l-.521-.149c1.293-.52 1.944-.778 3.239-1.282zm-3.035 25.268l.512.097c.605.603.908.9 1.51 1.492l-.512-.091c-.604-.593-.907-.895-1.51-1.498zm2.021 1.589c.861.153 1.68 1.653 2.455 4.383-.004.156-.002.236-.006.393a67.43 67.43 0 01-.506-.079 429.153 429.153 0 01-1.943-4.697zm3.713-27.818c.207.063.311.091.518.154-.871.439-1.305.666-2.176 1.116-.207-.062-.312-.094-.521-.155.87-.451 1.306-.672 2.179-1.115zm6.953-1.33l.496.586c-.012.168-.014.254-.023.423-.219.103-.324.151-.541.255-.199-.232-.301-.348-.5-.582l-.52-.161c-1.93.432-2.898.654-4.828 1.123-.209-.063-.311-.097-.52-.159.044-.761 2.192-1.296 6.436-1.485zm-2.974 5.965c-.857.268-1.287.405-2.146.682l-.545.278c-.01.17-.012.256-.021.425l.521.142c.857-.278 1.289-.417 2.146-.688l.545-.273c.01-.167.014-.249.021-.417l-.521-.149zM175.352 193.907c-.131.834.504 1.045 1.896.633.344.534.516.8.857 1.333-.23.227-.346.343-.576.568.209-.061.312-.095.521-.155-2.84 6.42-4.764 13.263-5.771 20.374-.135.921-.201 1.379-.332 2.291.193.095.291.143.486.236-.023.152-.039.229-.061.38-.227.206-.336.311-.561.516l.51-.136-.564.511c.049 1.003.072 1.504.119 2.497-.045.299-.068.445-.111.743-1.91 2.04-2.918 3.46-3.051 4.319-.801.199-1.199.316-1.998.226-.945-.396-1.422-.6-2.373-1.011.336-.983.506-1.475.846-2.463a208.265 208.265 0 01-1.855-1.759c.48-2.187.723-3.29 1.217-5.505.348-2.701.525-4.065.885-6.822.475-.368.713-.552 1.189-.917.084-.61.123-.916.207-1.528-.186-.201-.277-.303-.465-.506.021-.153.031-.229.055-.384.412.099.617.15 1.031.248.021-.152.035-.229.057-.383-.188-.202-.281-.307-.467-.511 1.01-2.773 1.516-3.901 2.541-7.165-.209.061-.316.149-.523.091.229-.097.348-.271.578-.493.117-.972.174-1.46.293-2.438l-.471-.258.055-.408c2.334-.847 3.5-1.272 5.836-2.124zm-9.156 30.999c-.1.72-.15 1.08-.252 1.796l1.078-.59c.072-.427.107-.645.182-1.072l-1.008-.134zm.943-15.023c-.113.915-.17 1.371-.285 2.281l.52.107c.113-.906.168-1.361.283-2.273a48.068 48.068 0 01-.518-.115zm.994-3.309l-.318 2.286c.207.048.312.069.52.117.127-.909.188-1.364.316-2.278-.207-.051-.311-.074-.518-.125zm1.02-3.801c-.137 1.121-.207 1.71-.344 2.782.207.053.312-.079.521-.138.139-1.112.205-1.67.344-2.792l-.521.148zM190.241 189.524c1.402.548 2.102.82 3.496 1.363.057-.817.426-1.331 1.123-1.539l.525-.156c2.529 5.022 3.752 7.487 5.988 12.253-.033.314-.055.471-.088.783l-.51.158c-.301-.813-.457-1.22-.77-2.041l-.512.156-.084.79a255.475 255.475 0 012.783 5.505l.502-.159c2.223-7.094 4.982-14.916 8.195-23.424l1.496.346c.639-.352.963-.527 1.602-.879 1.211.111 1.814.165 3.02.272l-.035.402c-1.041.317-1.611 1.02-1.713 2.096l.521-.158c.193.099.285.146.479.242l.52-.158c.287-.87.428-1.305.711-2.177l1.041-.318c-.016.162-.023.239-.037.401l-.559.564c.191.099.287.146.479.244-.018.161-.023.242-.041.402-4.039 9.117-7.213 18.541-10.475 27.954-.391.134-.586.199-.975.333a349.79 349.79 0 001.996-6.352c-.664.221-1.652 4.679-4.143 8.133-.791 1.096-2.525 1.899-3.596 2.256-.047.295-.07.441-.121.735l-.486.161c.082-.49-.527-.52-1.828-.094.162-1.034.242-1.556.396-2.602.168-1.128-2.07-6.184-8.02-16.243l-.516.153c-1.754 5.157-3.49 11.823-5.271 19.619-.184-.091-.275-.138-.461-.229-2.049 1.023-3.109 1.925-3.186 2.723-.4.113-.6.171-1 .283-.58-.739-.771-2.246-.572-4.563l-.51.141c-.113 1.354-.172 2.027-.289 3.362l-1.004.278c-.139-.685-.207-1.028-.35-1.719 1.104-9.729 4.641-18.554 8.07-27.645 1.685-.657 2.527-.989 4.209-1.652zm-7.961 12.245l-.029.396.492.245-.547.547c-.023.317-.033.477-.057.792l.518-.151c.254-.691.379-1.039.633-1.734l-.49-.246c-.21.059-.313.09-.52.151zm19.006.459c.877-.273 1.445.563 1.66 2.478l-.051.386c-.201.064-.303.098-.506.161-.43-1.201-.65-1.806-1.103-3.025zM241.065 174.628l.406.248c.209-.063.311-.096.518-.16.047-.162.07-.244.115-.408 5.584-.656 8.025.003 7.373 2.045.092.818.135 1.227.211 2.036l-1.021.338c.348-1.046.174-1.46-.51-1.237-.205.066-.307.102-.512.168-.033.721-.053 1.08-.1 1.795l-.168.406-1.018.341c-.678.227-.881-.058-.615-.854l-.643.565-.51.17c-1.51-.448-3.066-.433-4.639.074-3.42 1.104-7.812 5.116-13.193 12.003a446.386 446.386 0 01-2.352 4.752c-1.123 3.539.178 5.271 3.82 5.154l-.299.773-.963.367c-.059.154-.092.232-.15.388l.961-.366c2.279-.872 6.199-4.355 11.865-10.436.061-.154.094-.232.154-.389l-.488.183c-3.203 3.312-6 5.914-8.396 7.798l-.484.184c2.887-2.815 4.342-4.229 7.26-7.046-1.371.511-2.061.765-3.436 1.27.193-.522-.201-.606-1.188-.249l-.352-.216.141-.395c.17-.52 1.953-1.498 5.352-2.953a52.6 52.6 0 00.289-.786c-.254.229-.381.344-.637.572-1.189.429-1.789.642-2.982 1.066-.811-.681-1.227-1.026-2.074-1.73l.641-.573.102-.392c2.174-.602 3.26-.903 5.422-1.519 5.367-2.29 8.049-3.446 13.412-5.759.064-.154.094-.231.156-.385-1.666.593-2.398.63-2.201.113.201-.07.299-.107.498-.178l.355.212.65-.563c.199-.07.301-.105.5-.177 3.369-.509 4.914-.548 4.699-.059l-.137.366c-.264.225-.398.337-.664.561-.064.151-.098.228-.164.379a420.86 420.86 0 001.973-.733c-.135.301-.201.449-.338.749-.197.073-.295.113-.492.187-3.27 1.479-4.904 2.217-8.176 3.688-.062.152-.098.229-.16.381.195-.072.295-.111.492-.185 1.836-.812 2.754-1.219 4.586-2.034-.133.302-.199.45-.334.752-3.262 1.239-5.316 2.87-6.186 4.888a429.182 429.182 0 01-4.119 6.595c.129.067.195.102.326.168-.07.149-.109.223-.18.372-.545.826-.818 1.237-1.363 2.06a102.393 102.393 0 01-.943 2.737c-.504.452-.758.677-1.26 1.128.098.071.145.107.24.178-1.365.854-2.258 1.729-2.691 2.623-.545.245-.814.367-1.359.61-.604.27-.375-.687.645-2.908l-.463.198c-.48 1.04-.721 1.558-1.213 2.589-.547.239-.822.357-1.371.596.342-.737.51-1.107.846-1.85.291-.963.432-1.445.705-2.419l-.938.385c-2.086 1.681-4.014 2.89-5.82 3.617-.939.378-1.408.565-2.354.939-.24-.16-.363-.239-.609-.401.051-.148.078-.221.127-.37.381-.148.568-.224.947-.372.061-.153.094-.23.154-.384-6.572 2.572-9.652 2.029-9.674-1.143-.012-1.423.023-3.055.301-4.706.172-1.021.416-2.079.738-3.179l.209-.808c.598-2.075 2.184-5.078 4.758-9.02l.516-.164c-.09.332-.133.499-.223.83-.92 1.352-1.377 2.024-2.299 3.37-.033.161-.057.241-.09.402l.512-.166c.68-2.489 4.387-6.603 11.227-12.24l.518-.159c.045-.166.064-.248.109-.414-.209.063-.311.098-.52.161-.666.357-.998.535-1.664.894 1.177-1.633 4.48-3.276 9.906-4.939zm-14.859 9.538l-.141.425-2.475 2.302c.043-.165.066-.246.111-.412 1.003-.927 1.503-1.391 2.505-2.315zm3.839-3.869l.518-.161a2076.728 2076.728 0 00-4.357 4.029c.045-.165.066-.249.109-.415 1.49-1.382 2.238-2.073 3.73-3.453zm-2.509 25.624l-.127.37c.943-.375 1.416-.564 2.357-.943.053-.147.08-.222.135-.369-.945.379-1.418.568-2.365.942zm2.41-5.171c.191-.073.291-.109.482-.184l-1.236 1.132-.48.184c.492-.453.738-.679 1.234-1.132zm1.349 2.72c1.771-1.215 2.66-1.824 4.441-3.043.131-.304.197-.455.326-.76l-.475.188c-1.721 1.447-2.583 2.171-4.292 3.615zm6.258-24.764c-.035.16-.051.244-.084.403 1.445-.456 2.166-.687 3.607-1.145.037-.158.057-.24.092-.398-1.443.457-2.168.684-3.615 1.14zm10.121 4.148c.803-.28 1.205-.421 2.008-.703-.52.451-.779.678-1.299 1.13l-.709-.427zM89.377 216.458c.71.228 1.199 1.344 1.498 3.319.422.135.633.2 1.056.333l1.447-.49c.24.264.36.396.601.658.472 10.726 1.07 15.83 2.944 25.25 1.732-.192 6.765.658 15.694 1.66l.496.119c.031.174.049.26.08.433-11.256-1.048-16.172-1.861-15.891-.913 1.891.186 2.854.262 4.811.383l.111.434c3.42.413 5.176.57 8.754.8l.088.43.404-.31c.195.048.295.071.49.118l.573.548c.945.062 1.423.089 2.378.137.789.177 1.186.263 1.979.431 1.416.463 2.127.687 3.547 1.118l.066.421c.135.841-2.25 1.124-6.969.56l.088.421c.157-.124.237-.184.396-.308l.486.11c1.391.476 2.084.705 3.479 1.149l.413-.319c.09.5.137.749.229 1.246-6.158.047-9.125-.068-14.75-.624-3.436.13-5.078.133-8.184-.015-.517-.207-.771-.313-1.285-.525-1.012-1.098-1.523-1.651-2.544-2.771-.173-.073-.257-.11-.431-.185l-.166-.412c-.279-.698.14-.869 1.264-.525-.188-.502-.28-.754-.465-1.26-.779-.89-1.172-1.338-1.956-2.24-2.063-7.394-2.854-11.358-3.923-19.674l.506.178c.166.765.248 1.145.42 1.902.101 1.255.158 1.877.285 3.111.395.142.592.214.987.354.194 2.284.315 3.406.604 5.614l.605.628c.015.651.026.974.052 1.617.268.892.401 1.337.679 2.218l.466.176c-2.165-9.053-2.929-13.933-3.762-24.173.703.231.977-.148.828-1.147l.457-.328c.428.136.64.206 1.065.343zM127.945 226.943c-.048.917.665 1.52 2.143 1.801.432.813.649 1.216 1.081 2.019-.227.14-.34.21-.564.351.219.04.329.061.549.1-2.361 5.95-3.347 12.98-2.959 20.558.048.98.073 1.468.129 2.433.221.189.331.284.553.472.008.16.014.241.023.401l-.474.333.498.067c-.188.133-.286.197-.474.329.271 1.141.405 1.706.681 2.821l.06.778c-1.48 1.474-2.122 2.639-2.033 3.53a114.99 114.99 0 01-1.881-.265c-.964-.441-1.446-.665-2.413-1.128.043-1.049.067-1.579.13-2.649a247.756 247.756 0 01-2.131-1.926c-.106-2.363-.14-3.569-.174-6.027a200.907 200.907 0 01-.582-7.654c.384-.439.579-.658.971-1.101-.031-.697-.048-1.049-.076-1.752l-.544-.544c-.007-.177-.009-.266-.017-.441l1.053.209c-.006-.176-.012-.265-.018-.44-.217-.219-.324-.33-.541-.55.508-3.245.798-4.896 1.441-8.248l-.545-.115.547-.347c-.01-1.105-.014-1.659-.014-2.776l-.545-.583.004-.468c2.439.343 3.663.506 6.122.812zm-3.995 32.106c.088.785.134 1.174.227 1.947.33-.252.496-.376.832-.631-.041-.464-.062-.698-.1-1.166-.384-.057-.576-.089-.959-.15zm-2.354-16.762c.059 1.048.094 1.567.162 2.6l.514.095c-.064-1.03-.096-1.551-.152-2.596-.209-.041-.315-.058-.524-.099zm.383-3.853c.03 1.063.047 1.592.087 2.642l.526.099a222.3 222.3 0 01-.085-2.638l-.528-.103zm.415-4.375c.026 1.268.044 1.896.083 3.146l.531.104a245.142 245.142 0 01-.076-3.142c-.216-.042-.323-.064-.538-.108zM149.278 229.724c.98.712 4.102 1.428 9.324 1.994-.021.162-.029.243-.047.405a289.637 289.637 0 01-3.869-.433c-.016.166-.025.246-.043.41 4.621.532 7.449 1.598 8.506 3.242l-.102.774a281.265 281.265 0 01-2.721-.205c-.02.157-.027.237-.045.394 1.504.274 2.254.404 3.746.651-.021.153-.033.23-.053.383a257.395 257.395 0 01-3.246-.215c-.018.156-.027.235-.047.391 1.084.075 1.629.788 1.523.876-1.574 1.303-12.26.811-17.207 3.9l-.021.409c6.979 2.069 12.355 5.274 15.996 9.316-.02.141-.025.207-.045.348-1.348 3.068-4.811 6.032-10.189 8.796-1.188.181-1.783.265-2.975.425l-.014.355c.393-.007.586-.009.977-.019-.012.636-2.992 1.504-8.791 2.118-.006-.29-.008-.437-.016-.728.973.033 1.459.047 2.436.062l.029-.36c-2.092-.036-4.143-1.604-5.945-2.845-1.132-.778-2.404-1.88-2.591-3.576a3.976 3.976 0 01-.023-.484c.591-.253.887-.381 1.485-.639.612.37.918.551 1.527.909.404.032.605.048 1.008.077 9.393-.439 15.307-5.144 14.637-6.219-.932-1.499-6.891-2.643-8.238-2.744-.006.159-.008.238-.016.398a143.244 143.244 0 01-5.283-2.096l.52.466.013.816c-4.533-2.943-6.853-5.342-6.834-6.723a211.152 211.152 0 013.952-5.49c1.125-.529 1.693-.795 2.835-1.326l-.045.868a584.401 584.401 0 019.892-4.681zm-6.406 32.575v.364c.783.012 1.176.014 1.959.014.98-.142 1.471-.217 2.449-.373-.008-.142-.008-.212-.016-.354l-.492.005c-1.557.158-2.338.226-3.9.344zm-1.006-21.999c-.008.167-.014.251-.02.417 3.773-1.416 5.688-2.141 9.553-3.572 1.775-.155 2.664-.235 4.439-.403l.082-.805-1.094-.102c-5.8 1.05-10.13 2.518-12.96 4.465zm3.578 16.537l.504.014c.412-.289.619-.434 1.037-.724l-.508-.012-1.033.722zm2.875 2.955c.004.145.006.218.014.361l.492-.006c.809-.44 1.213-.663 2.027-1.108-1.016.308-1.523.457-2.533.753zm6.154-2.975c-.855.733-1.275 1.101-2.115 1.832l.498-.016c.838-.732 1.26-1.1 2.115-1.834l-.498.018z"/><path d="M198.905 222.493c.609-.055.914-.082 1.52-.14l-.152.8c-.633.218-.949.325-1.582.54.334.335.502.5.83.831-1.014 1.584-3.902 3.221-8.754 4.767-1.5.626-2.252.932-3.754 1.54l-.693 1.326.525-.16c-3.693 8.001-6.566 16.376-9.643 24.628.252 1.526.365 2.27.564 3.727l-.438.134c-.656.194-1.039-.654-1.209-2.638.402-1.33.605-2.007 1.012-3.383l.055-.33-.471.131-.107.66c-.938.262-1.439.604-1.506 1.038-.02.131-.033.196-.053.327.053 1.982.064 2.949.066 4.827-.023.123-.033.185-.055.308-.354.098-.529.145-.887.239-.645-.179-.975-.27-1.639-.459l-.496.421-.451.109c-.947-1.476-1.393-2.911-1.232-4.271.172.084.26.127.434.21l.471-.111c-.264-.809-.4-1.217-.68-2.044.59-.266.883-.401 1.475-.674.082-.66.123-.992.203-1.663-.389.096-.58.141-.969.234l.033-.332c.977-.233 1.49-.582 1.547-1.033l.039-.34c-.393.099-.588.148-.98.243.207-1.807.807-2.863 1.803-3.116.213-1.811.32-2.733.527-4.607.578-.479 1.547-3.136 2.934-8.34-1.5.553-2.252.827-3.754 1.358-2.967.611-4.463 1.491-7.461 1.202.01-.15.012-.225.021-.375 1.084-.099 1.631-.36 2.717-.768-.012.15-.016.225-.027.375.227-.201.338-.303.564-.505a245.742 245.742 0 008.02-2.051l.123-1.151a261.086 261.086 0 01-8.654 2.953c-.203-.1-.307-.148-.512-.248l-.539.13c-1.309.457-1.959.342-3.264.417-.631-.345-.949-.518-1.584-.874.252-.762.383-1.144.639-1.909l-.525-.435c.062-1.312 2.295-1.106 6.684-2.191a570.925 570.925 0 0029.265-9.327zm-25.465 28.754a610.923 610.923 0 01-1.877 7.481c.371-.09.557-.136.928-.229-.098-.59-.148-.886-.252-1.486l.086-.647 1.08-1.22c-.191.049-.287.075-.479.122.209-.179.312-.271.521-.451l.045-.331c-.174-.084-.26-.127-.436-.211.018-.134.023-.198.043-.331.451-.629.682-.947 1.141-1.588-.123-.49-.184-.735-.311-1.231-.194.05-.294.073-.489.122zm22.072-26.492l-.068.396c.85-.28 1.271-.421 2.117-.705.029-.159.043-.237.068-.396-.845.284-1.267.425-2.117.705z"/></g><g fill="#FFF"><path d="M84.42 35.973c.302.048 1.634-.551 4.049-1.702l-.107.234c-.719.339-1.072.511-1.784.859-.044.094-.065.141-.109.232 2.122-1.037 3.295-1.176 3.488-.456-.083.194-.125.293-.206.488-.527.218-.789.329-1.312.553-.042.097-.063.143-.105.236a72.31 72.31 0 011.737-.514c-.041.099-.059.146-.101.245-.635.255-.953.383-1.586.645a7.582 7.582 0 00-.102.241c.526-.217.735.017.582.166-1.489 1.451-6.298 3.479-9.631 6.354-.047.088-.067.133-.115.22 3.04-.659 5.101.138 6.215 2.514l-.101.251c-1.419 2.31-4.044 4.746-7.933 7.16-.741.244-1.108.367-1.849.612l-.109.231c.229-.048.346-.07.575-.121-.19.423-2.146 1.244-5.838 2.478l.232-.44c.57-.128.856-.193 1.429-.318.053-.091.078-.134.133-.225-1.223.27-2.146-.439-2.572-.708-.344-.215-.774-.572-.31-1.442.043-.078.095-.164.152-.254.426-.268.638-.402 1.062-.673.229.063.35.098.584.168l.551-.164c5.497-2.161 9.907-6.215 9.797-6.419-.17-.312-2.988-.149-3.674.102l-.116.22c-.895.039-1.335.072-2.202.156.057.044.085.062.142.107l-.227.42c-1.562-.417-2.052-.797-1.636-1.44 1.433-1.458 2.146-2.2 3.551-3.709.703-.587 1.052-.884 1.747-1.479-.099.166-.146.249-.246.416a197.4 197.4 0 005.945-5.244zM72.387 55.401l-.117.227c.457-.102.686-.151 1.145-.251.619-.217.928-.323 1.546-.539.036-.092.056-.139.094-.229-.114.023-.174.037-.289.062-.955.289-1.428.435-2.379.73zm5.775-12.048l-.12.215a241.072 241.072 0 005.686-4.396c.92-.554 1.379-.828 2.301-1.379.086-.187.13-.28.22-.468-.208.092-.311.141-.518.231-3.106 2.11-5.619 4.055-7.569 5.797zm-2.656 8.304l.279-.074c.314-.243.47-.364.783-.61-.111.031-.164.047-.277.077-.312.243-.47.366-.785.607zm.783 1.422a6.234 6.234 0 00-.093.232l.284-.065c.589-.388.881-.582 1.467-.973-.663.323-.993.485-1.658.806zm4.298-2.72c-.669.595-1.003.89-1.675 1.476l.284-.064c.673-.587 1.006-.883 1.674-1.479-.114.026-.17.038-.283.067zM95.312 31.007c.352-.144.369.284.054 1.295.213-.083.32-.125.533-.205.382-.323.573-.487.953-.812.077.061.11.092.188.154a1921.867 1921.867 0 00-5.613 15.094c1.38-.782 4.826-2.103 10.433-3.748l.298-.049-.063.295c-7.138 2.184-10.728 3.716-10.89 4.306 1.371-.564 2.058-.849 3.431-1.411-.028.111-.044.165-.071.275 2.34-.838 3.516-1.25 5.866-2.063l-.063.288c.143-.133.213-.201.356-.335.12-.02.181-.027.298-.044l.234.246c.618-.206.929-.308 1.548-.509.476-.066.715-.1 1.191-.163.813.006 1.221.013 2.04.033-.021.122-.033.181-.055.304-.113.608-1.719 1.275-4.796 2.057-.023.119-.04.18-.065.299.145-.135.221-.202.365-.337.119-.016.181-.022.3-.037.816.013 1.221.021 2.042.048.146-.136.22-.202.362-.337-.069.363-.104.543-.17.908a907.536 907.536 0 00-10.431 3.543 640.851 640.851 0 01-6.841 3.066 96.15 96.15 0 00-.892.133 327.85 327.85 0 00-.787-1.113c-.117.021-.175.03-.292.052.033-.104.05-.155.079-.26.137-.432.605-.759 1.413-.982.094-.312.14-.466.235-.776a77.49 77.49 0 00-.551-.86c1.918-4.694 2.885-7.021 4.815-11.625.106-.039.163-.058.271-.095l-.331.995c-.341.735-.511 1.1-.85 1.836.221-.068.33-.104.552-.17l-1.614 3.444c.082.071.124.106.202.179-.242.438-.364.655-.607 1.093-.159.509-.242.765-.401 1.277l.286-.067c2.15-5.554 3.233-8.297 5.397-13.69.351-.143.608-.463.771-.955.138-.144.209-.214.346-.357.21-.09.314-.133.524-.22z"/><path d="M120.536 22.367c.118.094.76.769 2.17.532.393 4.296.611 6.521 1.074 11.112.845-.064 1.27-.093 2.118-.146-.013.136-.022.203-.035.338-.742.179-1.112.269-1.854.453l-.035.336c.605-.04.888.165.84.614.974-.056 1.462-.082 2.438-.122l-.032.341c-.048.509-1.116.996-3.194 1.498.159.797.242 1.2.403 2.008l-.414 1.031c.036.812.055 1.221.094 2.04-.139.141-.206.209-.347.349l.31-.006c-.137.14-.207.211-.347.35-.051 1.643-.074 2.468-.123 4.132-.087.832-.133 1.251-.223 2.086-.109-.141-.167-.212-.276-.354-.127-.002-.191-.001-.316-.004.154 2.087.23 3.141.391 5.273-.257-.012-.384-.018-.641-.028.076-.701-.098-1.061-.525-1.074-.017.14-.022.209-.036.35l.202 1.062-.321-.015c-.111-.145-.17-.217-.282-.36-.128-.007-.189-.008-.317-.012-.078.697-.332 1.037-.762 1.021-.37-2.395-.553-3.574-.908-5.894-.125 0-.189.003-.315.003l-.162 1.361h-.317c-.055-1.638-.077-2.448-.129-4.059.342.261.515.391.856.655l.041-.335c.071-2.029-.119-3.021-.567-3.002l.351-.348c.05-.402.073-.604.122-1.003l-.617.028-.124.999-.31.012c.066-.532.101-.797.168-1.327l.347-.348-.305.016c-.142.139-.21.208-.35.35l.169-1.323c.122-.007.183-.014.307-.021.104.126.156.189.263.315l.308-.016-.266-.315.246-1.982a374.074 374.074 0 00-6.894 2.187l-.096.634c.886-.334 1.33-.5 2.216-.83.467.086.7.13 1.171.222.627-.178.938-.265 1.564-.439-.035.261-.051.393-.087.654-4.385 1.11-6.572 2.543-6.882 3.695-.589 2.191-1.77 3.884-2.565 4.556l-.104.632c-.372.021-.56.03-.929.053l-.254-.297-.309.021-.054.311c-.327-.228-.492-.34-.816-.562.377-.763.569-1.146.945-1.911-.121.012-.186.016-.309.026-.609.05-1.064.896-1.359 2.547a112.69 112.69 0 00-.505-.572c.258-.75.39-1.124.646-1.871-.3-.337-.446-.502-.742-.83 3.005-5.19 4.467-7.832 7.295-13.172l.292-.05c-.104.612.041.883.431.821l.547-1.582-.343.356-.289.05c.081-.489.121-.733.205-1.221.216-.629.32-.945.535-1.575l.24.251c.114-.022.174-.034.291-.055-.097-.101-.144-.149-.238-.25.021-.122.028-.183.049-.303.309-.533.459-.799.77-1.331.112-.024.171-.036.287-.058.094.1.146.149.241.249.115-.021.173-.031.287-.054.019-.123.027-.183.047-.306.064-.409-.187-.558-.761-.44a349.959 349.959 0 002.09-4.552c.451-.103.68-.153 1.13-.252-.131.147-.193.221-.325.367-.02.121-.031.182-.048.304 1.432-1.098 3.694-2.12 3.862-1.994zM110.129 37.14c-.202.507-.301.761-.505 1.267.119-.017.181-.025.297-.043.321-.523.479-.785.8-1.313l-.592.089zm1.143-1.67c-.137.142-.207.211-.345.353l-.104.615c.118-.019.177-.029.295-.046l.448-.968c-.116.017-.175.029-.294.046zm1.568.976l-.493 1.288c.118-.016.18-.022.298-.037l.346-.351.149-.941-.3.041zm2.097-4.27c-.365.909-.551 1.364-.92 2.271l-.246-.267c-.118.019-.176.025-.293.044.039.479.06.719.101 1.201.119-.018.178-.023.294-.04a405.7 405.7 0 001.311-2.943c.02-.124.025-.187.046-.312l-.293.046zm2.903-2.291a384.881 384.881 0 01-3.31 6.958c.238-.029.354-.043.595-.069 1.99-.233 3.182-.981 3.549-2.293a753.565 753.565 0 01-.545-4.639l-.289.043zm-2.806 7.525l-.046.318.599-.067c1.832-.402 2.781-.806 2.838-1.238l-.305.03a281.76 281.76 0 00-3.086.957zm3.299 6.848c.245-.01.37-.014.618-.022l-.249 2.009c-.123.004-.188.006-.311.008-.022-.801-.037-1.201-.058-1.995zm.83 3.325l-.081.678c.393-.141.589-.209.98-.348.032-.272.052-.409.084-.682l-.983.352zm3.254-1.048c-.029.273-.046.412-.076.688l.164 1.383c.127.001.191.001.318.004l.071-.695-.164-1.379c-.126-.001-.187-.002-.313-.001zM139.729 22.236c.12-.003.18-.003.299-.007 2.896-.068 5.064 1.376 6.516 4.351-.004.146-.004.219-.01.365a60.725 60.725 0 00-.615-.025c.123.15.182.224.299.377-.006.144-.006.217-.008.361-1.223-.227-1.77-.738-1.82-.792-.951-1.011-8.4 2.81-11.207 8.453-.319.986-.48 1.479-.804 2.469.168 2.682.256 4.042.427 6.793l.947.038c2.638.114 5.784-1.882 9.248-6.103l.318.021c-.008.148-.008.222-.016.371-2.411 3.635-5.11 5.66-7.986 6.151-.011.146-.016.221-.025.366l.316.019c2.223.127 5.162-1.88 8.629-6.096.354.625.529.938.889 1.571l-.049 1.126c-.033.809-1.699 2.541-5.086 5.191-.135.139-.202.207-.342.347-.127-.012-.191-.017-.318-.027-.017.298-.027.448-.046.746 3.772-1.747 5.655-3.067 5.698-3.998.254.024.381.037.639.063-.008.15-.01.227-.016.376-2.854 3.506-6.116 5.05-9.636 4.781-.012.148-.016.22-.026.367.645.052.966.076 1.612.133l1.314-.258c.129.013.193.018.324.03-.009.148-.014.224-.025.373-1.567.147-2.354.223-3.923.391-1.632-.127-3.247-1.596-4.806-4.268-.013.143-.02.214-.031.355.537 1.17.81 1.763 1.355 2.962-.01.136-.017.203-.026.341l-.961-.056c-1.856-1.64-2.842-3.547-2.993-5.796.043-1.825.062-2.734.104-4.536.53-5.795 1.855-9.447 3.982-11.141-.011.139-.013.206-.022.344a342.299 342.299 0 01-2.092 3.517l-.028.345c.121-.005.18-.009.3-.015.183-2.182 2.982-5.41 8.176-9.634-.367.151-.551.227-.919.381l-.296.013c.008-.139.009-.208.017-.348 1.088-.321 1.634-.48 2.723-.788zm-11.22 20.818l-.096 1.056c.076.563.112.846.188 1.415l.315.008c.015-.141.02-.211.031-.352-.05-.853-.074-1.28-.125-2.126l-.313-.001zm5.016-16.763c-.011.136-.015.203-.023.341-.648.718-.977 1.075-1.631 1.792.013-.137.017-.203.028-.34l1.626-1.793zm2.847-2.547l.299-.012c-.01.139-.013.206-.021.346-.862.45-1.291.678-2.156 1.134.03-.461.656-.955 1.878-1.468zM153.442 21.671c.121 1.33.18 2 .301 3.346.404.037.711-.679.91-2.14.119.012.178.018.301.028.123.604.184.904.305 1.511a410.782 410.782 0 01-.93 5.89 690.58 690.58 0 003.379-2.625l.301.038a312.885 312.885 0 01-3.686 3.719c-.004.151-.004.226-.006.378a554.199 554.199 0 006.992-5.535c.121.17.186.255.307.425 2.641-2.385 4.314-3.466 5.197-3.304l.293.055.357 1.583a330.955 330.955 0 01-2.25 2.632l.295.053c.365-.951.936-1.355 1.723-1.206.123.176.186.265.311.44-.006-.153-.008-.23-.016-.383-.121-.177-.186-.264-.311-.44.113-.129.168-.196.279-.326.354.066.529.102.883.172.137.482.203.726.34 1.211-1.438.609-9.576 5.197-10.375 8.193-.475 1.787 3.887 9.57 7.531 17.183-.002.323 0 .483-.002.809-.131 1.106-.195 1.66-.33 2.77l-.318-.481-.322-.07c-.131.621-.201.933-.338 1.555-.514-.116-.773-.174-1.289-.287.006-.324.006-.486.012-.811-.131-.028-.193-.043-.32-.069l-.016.81c-.258-.055-.383-.083-.645-.138.016-.952-2.307-6.618-6.828-15.898l-.602-2.394c-.633.068-.949.104-1.582.178-.383 6.097-1.186 9.909-2.326 11.293l-.01.389a175.902 175.902 0 00-3.242-.836c.018-.46.029-.692.049-1.152.172-1.059.256-1.586.422-2.641-.641-.075-1.029-.99-.879-2.393.254-2.339.834-3.708 1.182-3.674-.121-.164-.186-.246-.307-.409.852-6.854 1.529-10.847 2.164-12.147-.115-.451-.174-.676-.293-1.125.387-1.151.576-1.727.951-2.875l.006-.364c-.121-.153-.18-.231-.301-.385.002-.146.002-.218.002-.365.242.015.363.02.607.035-.008 1.023-.01 1.537-.021 2.566.121.008.184.014.309.021.125-.433.189-.65.316-1.083-.123-.155-.184-.23-.305-.387.002-.147 0-.22.002-.365.21-.725.815-1.052 1.823-.975zm-2.463 3.87c-.133.873-.199 1.311-.338 2.188l-.021 1.482c.123.011.188.016.311.024.145-1.326.217-1.988.357-3.308v-.368l-.309-.018zm8.828.529l.299.04c-.709.655-1.07.986-1.793 1.648-.119-.015-.182-.022-.305-.039.727-.663 1.09-.992 1.799-1.649zm-1.264 23.417c.127.023.189.036.32.059l.941 1.368-.32-.061c-.376-.55-.567-.823-.941-1.366zm1.262 1.427c.541.104 1.062 1.531 1.551 4.326-.002.16-.006.24-.01.4-.127-.025-.191-.04-.32-.066-.49-1.879-.731-2.812-1.221-4.66zm1.469-26.146l.301.042c-.463.536-.695.805-1.168 1.342-.121-.018-.18-.026-.301-.042.475-.538.705-.806 1.168-1.342zm3.758-2.432c.121.17.182.255.307.427.006.152.008.229.012.383-.109.13-.164.195-.279.326-.119-.172-.184-.257-.305-.428l-.293-.048a1163.1 1163.1 0 01-2.598 1.858c-.119-.018-.184-.026-.301-.045-.012-.668 1.168-1.514 3.457-2.473zm-1.293 5.846c-.469.379-.703.57-1.176.95-.121.134-.176.198-.295.332.004.155.008.233.01.388.121.019.178.027.297.047l1.186-.949.291-.334a24.746 24.746 0 01-.012-.382l-.301-.052zM171.633 24.607c.385.086.619.898.707 2.451l.58.135c.328-.229.49-.343.816-.569l.314.458c-.027 8.565-.137 12.952-.531 21.897 1.289-.477 4.799-.729 10.326-.677.121.023.186.035.307.061l.023.397c-6.994.102-10.648.544-10.629 1.438 1.352-.136 2.025-.197 3.361-.312.002.164.008.244.014.407 2.312-.004 3.508-.418 5.797-.629l.023.398.285-.341c.123.022.182.032.305.056l.33.456c.602-.045.904-.063 1.502-.102.486.096.73.146 1.215.244.863.333 1.291.5 2.15.838l.031.394c.061.782-1.396 1.098-4.451 1.079.008.162.008.242.018.402l.289-.347c.121.022.184.033.307.057.873.316 1.309.479 2.176.803l.281-.338c.029.476.045.712.078 1.19-3.979.495-6.092 1.441-10.176 1.597a394.91 394.91 0 00-6.568 1.527l-.957-.238c-.51-.947-.766-1.418-1.275-2.354-.125-.029-.189-.045-.316-.076-.002-.163 0-.246-.002-.408.002-.686.42-.992 1.264-.921l-.008-1.218-.959-1.845c.451-7.163.625-10.691.85-17.624.119.026.18.037.299.062.025.625.035.94.055 1.567-.082 1.073-.127 1.61-.215 2.689l.607.134a417.462 417.462 0 01-.473 5.021l.316.469c-.109.612-.164.918-.277 1.53.018.8.025 1.201.037 2.006.125.027.188.041.311.07.348-8.409.447-12.54.498-20.612.387.084.561-.261.518-1.03.109-.129.16-.194.27-.322.228.053.347.078.577.13zM191.545 31c.072.704.469 1.196 1.188 1.479.289.653.428.98.717 1.635-.09.099-.135.148-.225.25.109.041.16.062.268.104-.488 4.597-.545 10.436-.152 17.459.045.909.07 1.363.115 2.278l.336.453c.008.153.012.23.018.383-.113.125-.168.188-.283.314l.305.069c-.115.124-.172.187-.285.312.166 1.099.25 1.647.414 2.752l.029.77c-.957 1.45-1.447 2.666-1.434 3.586-.5-.089-.752-.134-1.252-.221l-1.557-1.056c.109-1.087.162-1.629.264-2.703-.518-.722-.771-1.082-1.287-1.806.074-2.337.1-3.496.135-5.792-.104-2.79-.166-4.172-.311-6.908l.523-.984c-.033-.603-.047-.905-.086-1.507-.125-.183-.189-.273-.316-.456-.01-.149-.01-.226-.02-.376.232.065.344.098.576.162l-.025-.374c-.125-.183-.184-.275-.309-.458.156-2.748.213-4.1.297-6.764l-.277-.093.244-.271c-.084-.876-.127-1.313-.215-2.185-.123-.185-.186-.273-.309-.458l-.033-.362c1.192.291 1.777.444 2.947.768zm-.916 27.98c.021.784.027 1.176.043 1.963.234-.271.352-.407.586-.675-.004-.47-.004-.702-.01-1.171-.246-.048-.371-.069-.619-.117zm-1.265-15.527c.059.906.086 1.361.139 2.273.121.029.18.046.295.076-.055-.912-.086-1.367-.145-2.272l-.289-.077zm.074-3.294c.061.895.09 1.345.146 2.246l.289.081c-.057-.901-.088-1.35-.148-2.243-.113-.035-.172-.05-.287-.084zm-.008-3.625c.09 1.034.133 1.552.217 2.593l.283.087c-.084-1.041-.129-1.558-.217-2.59a24.247 24.247 0 00-.283-.09zM199.174 34.32a501.585 501.585 0 002.256 2.915c-.148-.685-.049-.945.295-.779l.26.126c2.551 5.595 3.838 8.395 6.416 13.971.059.275.086.413.143.688l-.27-.108c-.395-.916-.59-1.373-.98-2.291a31.014 31.014 0 01-.273-.109c.057.276.088.413.145.691 1.252 2.662 1.877 3.99 3.129 6.641l.281.104c-.457-5.748-.877-11.396-1.453-16.706.369.428.559.643.93 1.068.256.045.381.067.633.115.703.729 1.057 1.093 1.762 1.82.043.125.062.189.104.315-.486-.292-.598-.017-.336.83.1.056.148.084.246.142.139.182.207.272.344.457.102.057.15.086.25.143-.1-.573-.152-.859-.258-1.425.193.116.291.176.482.293.043.125.066.187.107.312-.057.065-.09.099-.143.165.137.185.207.275.346.459.041.125.064.187.104.312.338 4.096 1.211 10.67 2.018 20.258a77.93 77.93 0 01-.576-.187c-.199-2.149-.309-3.21-.564-5.308-.371-.14.6 3.877-.396 5.989-.186.389-1.217.634-1.863.446.049.286.07.428.117.714l-.295-.084c-.08-.478-.512-.828-1.299-1.052a247.86 247.86 0 00-.402-2.51c-.18-1.079-3.16-7.592-8.795-19.711l-.27-.108c.059 3.898.361 9.42.691 16.774-.139-.181-.211-.27-.344-.45-1.141.13-1.67.615-1.582 1.431-.24-.058-.361-.088-.605-.145-.502-1.047-.879-2.744-1.146-5.063l-.297-.076c.156 1.357.232 2.039.379 3.407l-.604-.144c-.201-.79-.299-1.188-.5-1.976-.736-6.883-.547-14.842-.201-22.962.811.236 1.212.356 2.014.608zm-2.136 7.288c.023.147.031.219.053.364.137.184.205.277.338.461-.088.105-.137.157-.225.263l.113.728c.115.038.168.059.279.097.021-.542.033-.811.053-1.349l-.338-.463-.273-.101zm11.505 9.633c.477.188 1.039 1.251 1.678 3.191.031.14.045.21.07.348l-.277-.105a1265.23 1265.23 0 00-1.471-3.434zM225.797 51.055c.609.702.916 1.053 1.533 1.752.555 1.314.371 1.657-.496.972-2.301-1.629-3.484-2.408-5.91-3.894.086.228.127.342.209.571.49.347.727.518 1.215.867.547.31.818.467 1.355.785.148.188.215.281.363.471.096.068.145.105.242.177.633.381.943.576 1.566.968.193.15.295.227.486.378.047.108.072.161.121.269-2.023-1.243-3.068-1.831-5.201-2.943.418 1.432.615 2.156.996 3.628.1.063.152.097.254.16 2.629 1.265 3.908 1.936 6.395 3.362.139.175.207.263.348.437.043.108.072.161.115.271-.199-.142-.305-.211-.506-.353.053.112.076.171.127.283.74.59 1.113.886 1.852 1.477.047.108.066.165.111.272.133.821-1.781.207-6.074-1.447a128.204 128.204 0 00-2.562-1.21l.344.433a63.167 63.167 0 01-.061 3.424c-.107-.047-.158-.07-.266-.116a161.738 161.738 0 00-.684-2.803c-.107-.056-.164-.085-.271-.143.32 1.671.471 2.517.748 4.23 5.223 1.388 8.732 2.946 10.922 4.186.566.416.85.625 1.418 1.04.088.229.133.341.221.568-.213-.118-.322-.177-.535-.296l.352.425.299.854c-.221.486-1.182.297-2.891-.572.037.118.053.177.088.296.881.446 1.316.671 2.191 1.124.07.229.102.343.168.572-4.678-1.427-7.135-2.013-12.225-2.939l-.289-.118c-.973-.552-1.508-1.058-1.611-1.521-.006-.023-.01-.037-.012-.06-.07-.397-.109-.597-.182-.992-.02-1.34-.041-2.002-.092-3.308-.139-.183-.211-.272-.348-.455l.555.239c.129.643.195.966.32 1.612l.287.147c-.164-1.059-.09-1.498.244-1.327-.143-.188-.215-.286-.355-.474a160.13 160.13 0 00-.68-3.149c-.221-.119-.334-.178-.553-.294.027.576.043.864.068 1.449.086-.073.133-.107.219-.178l.279.136c.166.764.246 1.146.406 1.914-.117-.06-.172-.092-.287-.152-.078-.378-.121-.567-.203-.944l-.277-.135c.057.258.084.389.137.646-.109-.054-.166-.079-.277-.132a66.53 66.53 0 01-.135-.643 112.619 112.619 0 00-.656-5.103l-.268-.141c.064-.506.094-.755.146-1.25a29.326 29.326 0 01-.35-.459c-.033-.123-.049-.187-.08-.31a119.49 119.49 0 00-1.146-4.994l.344.462c.102.065.15.1.252.163l-.182-.6c-.279-.662-.418-.99-.701-1.649a79.62 79.62 0 00-.604-2.471c-.117-.352-.174-.527-.297-.876.1.076.15.114.248.192.137.186.205.278.338.463.059-.044.092-.065.146-.109.1.077.146.116.244.193.133.18.199.267.334.445.057-.044.086-.064.141-.107l.723.551c3.225 2.197 4.786 3.359 7.797 5.803zm-6.939 5.318c.207.876.309 1.315.51 2.199l.271.139c-.199-.876-.301-1.311-.508-2.177-.113-.065-.166-.097-.273-.161zm8.672 4.708c.102.057.152.085.252.139l.084.282a85.113 85.113 0 00-4.473-1.841c-.145-.188-.215-.281-.361-.468a7.591 7.591 0 00-.078-.286c.926.416 1.387.628 2.301 1.059.035.119.053.179.09.297.882.319 1.32.482 2.185.818z"/></g></svg>