<svg width="91" height="53" xmlns="http://www.w3.org/2000/svg"><g fill="#FFFFFE" fill-rule="evenodd"><path d="M45.5 42c-1.5 0-2.5.863-2.5 2.482 0 1.583.828 2.518 2.5 2.518 1.5 0 2.5-.864 2.5-2.482C48 42.935 47.172 42 45.5 42M55.636 42c-.305 0-.636.033-.636.033v2.95s.291.017.582.017c.875 0 1.418-.54 1.418-1.517 0-.876-.41-1.483-1.364-1.483M34.531 42c-.234 0-.531.027-.531.027v2.918s.284.055.605.055c.889 0 1.395-.592 1.395-1.5 0-.88-.444-1.5-1.469-1.5"/><path d="M66.598 42.255h-2.15v7.295h-2.056v-7.295h-2.15v-1.79h6.356v1.79zM56.413 49.55l-1.95-3.486h-.345v3.486h-2.07v-9.085s1.273-.067 2.826-.067c2.15 0 3.423.794 3.423 2.732 0 1.373-.756 2.194-1.791 2.544 0 0 .371.525.65.996l1.765 2.88h-2.508zm-11.243.175c-2.76 0-4.193-1.615-4.193-4.522 0-3.176 2.07-4.912 4.485-4.912 2.747 0 4.18 1.615 4.18 4.522 0 3.176-2.07 4.912-4.472 4.912zm-9.749-2.96c-.278 0-.544-.014-.544-.014v2.8h-2.07v-9.086s1.328-.067 2.72-.067c2.376 0 3.623 1.104 3.623 2.988 0 1.857-1.274 3.378-3.729 3.378zm-8.472 2.947c-.81 0-1.525-.094-2.123-.242l.186-1.992c.597.242 1.34.404 2.043.404.717 0 1.248-.256 1.248-.876 0-1.507-3.649-.928-3.649-3.916 0-1.67 1.3-2.786 3.543-2.786.464 0 1.114.054 1.632.175l-.186 1.83a4.75 4.75 0 0 0-1.58-.27c-.848 0-1.233.338-1.233.85 0 1.426 3.689.928 3.689 3.902 0 1.71-1.274 2.92-3.57 2.92zM84.933 37H0v9.846C0 50.23 2.73 53 6.066 53h78.867C88.27 53 91 50.23 91 46.846V37h-6.067zM18 0H0l18 5V0zm-.893.75v3.213L5.54.749h11.567zM70 0H27.247C23.254 0 19.907 2.598 19 6.098L50.76 16h9.219L70 0zm-1.526.821L59.48 15.179h-8.58l-30.824-9.61C21.15 2.74 23.994.821 27.247.821h41.227zM71.714 0L60 20.08 71.714 24 84 21.06 71.714 0zm0 1.713l10.951 18.772-10.912 2.611-10.469-3.504 10.43-17.879zM49.18 18.263L19.01 8a8.212 8.212 0 0 0-.009.356c0 4.72 3.72 8.545 8.312 8.548H19V34h25.684C49.277 34 53 30.173 53 25.452c0-3.018-1.523-5.668-3.82-7.19M0 3v31h18V8.595L0 3"/><path d="M71 25.41L58.308 21 51 34h40l-6.688-11.897L71 25.41"/></g></svg>