<svg width="833" height="64" xmlns="http://www.w3.org/2000/svg"><g fill="#FFF" fill-rule="evenodd"><path d="M14.198 11.464c.791.598 3.304.896 7.54.896l-.026.447h-3.137l-.026.448c3.744 0 6.081.896 7.013 2.688l-.053.896h-2.241l-.026.449 3.111.447-.026.449h-2.689l-.026.447c.896 0 1.327.299 1.292.896-5.325 0-10.08 1.943-14.262 5.826l-.026.449c5.782 1.547 10.361 4.982 13.735 10.307l-.026.449c-1.09 3.866-4.139 7.45-9.148 10.755l-2.742.449-.026.447h.896c-.036.809-2.777 1.705-8.226 2.689l.053-.896h2.241l.053-.449c-1.916 0-3.647-1.045-5.194-3.137C.896 45.73.229 44.422.229 42.488c0-.176.009-.359.026-.553l1.397-.896 1.292.896h.896c8.436-1.318 12.786-4.007 13.05-8.067-3.533-1.793-5.871-2.689-7.013-2.689l-.026.449-4.403-1.793.422.447-.026.896C2.118 28.438.299 26.346.387 24.905l3.506-6.275 2.346-1.793-.053.896 8.012-6.269zM7.924 48.662l-.026.447H9.69l2.267-.447v-.449h-.448l-3.585.449zm.158-25.099l-.026.449 7.909-4.93 3.638-.896.053-.896h-.896c-4.729 1.758-8.288 3.85-10.678 6.273zm2.478 18.376h.448l.948-.896h-.448l-.948.896zm2.452 3.584v.449h.448l1.872-1.346-2.32.897zm5.615-3.584l-1.924 2.24h.448l1.924-2.24h-.448z" fill-rule="nonzero"/><path d="M34.347 11.858c.597 0 .896.896.896 2.689h.896l1.345-.896.448.448-2.241 25.098c1.898-.896 6.977-1.94 15.238-3.138h.448v.449c-10.458 1.704-15.686 3.048-15.686 4.032l4.93-1.344v.447l8.515-1.792v.448l.448-.448h.448l.448.448 2.241-.448h1.793l3.137.448v.447c0 .896-2.241 1.645-6.723 2.242v.447l.448-.447h.448l3.137.447.448-.447v1.344l-14.79 3.586-9.412 3.584h-1.345l-1.792-2.24h-.448v-.447c0-.756.597-1.205 1.793-1.346v-1.344l-1.344-1.793 1.792-20.167h.448v1.793l-.448 3.137h.896l-.896 5.826.448.449-.448 1.793v2.24h.448l1.793-23.754c.597 0 .896-.448.896-1.344l.448-.449h.899v.002z"/><path d="M76.168 10.065c.193.896 1.388 1.346 3.585 1.346l3.585 15.686h3.137v.449l-2.689.447v.449c.896 0 1.345.299 1.345.895h3.585v.449c0 .668-1.494 1.266-4.482 1.793l.896 2.689-.448 1.344.448 2.688-.448.447h.448l-.448.449.448 5.377v2.689l-.448-.447h-.448l1.345 6.723h-.896c0-.896-.299-1.346-.896-1.346v.449l.448 1.344h-.448l-.448-.447h-.448c0 .896-.299 1.344-.896 1.344l-2.241-7.619h-.448v1.793h-.448l-.896-5.379 1.345.896v-.447c-.247-2.689-.695-4.033-1.345-4.033l.448-.449V38.3h-.896v1.344h-.448v-1.792l.448-.447h-.448l-.448.447v-1.793h.448l.448.449h.448l-.448-.449v-2.688l-9.86 2.24v.896l3.137-.896 1.793.447 2.241-.447v.896c-6.274 1.125-9.412 2.618-9.412 4.481-.791 3.285-1.688 5.377-2.689 6.273v.896h-1.345l-.448-.447h-.448v.447l-1.344-.896.896-2.689h-.448c-.896 0-1.345 1.195-1.345 3.586l-.896-.896.448-2.689-1.344-1.344 7.619-18.374h.448c0 .896.299 1.344.896 1.344l.448-2.24-.448.447h-.448v-1.793l.448-2.24.448.449h.448l-.448-.449v-.447l.896-1.793h.448l.448.447h.448v-.447c0-.598-.448-.896-1.345-.896l2.241-6.275h1.792l-.448.449v.447c2.075-1.195 4.017-1.793 5.827-1.793zM63.171 29.337l-.448 1.793h.448l.896-1.793h-.896zm1.345-2.24l-.448.449v.896h.448l.448-1.346h-.448v.001zm2.689 1.793l-.448 1.793h.448l.448-.449V28.89h-.448zm2.241-5.827L68.55 26.2l-.448-.447h-.448l.448 1.793h.448l1.344-4.035v-.447h-.448v-.001zm4.033-2.689l-3.585 9.412h.896c2.988 0 4.631-.896 4.93-2.689l-1.793-6.723h-.448zM70.79 30.683v.447h.896c2.689-.299 4.034-.746 4.034-1.344h-.448l-4.482.897zm6.274 9.858h.896v2.689h-.448l-.448-2.689zm1.793 4.482v.896l1.344-.449v-.896l-1.344.449zm4.482-1.345v.896l.448 1.793h.448v-.896l-.448-1.793h-.448zM106.809 12.729h.448c4.341 0 7.627 1.793 9.86 5.378v.449h-.896l.448.447v.449c-1.792-.211-2.689-.51-2.689-.896-6.978 0-12.206 3.586-15.686 10.756l-.896 3.137 1.345 8.515h1.344c3.726 0 7.909-2.689 12.549-8.065h.448v.447c-3.181 4.588-6.767 7.276-10.756 8.067v.447h.448c3.128 0 7.013-2.689 11.653-8.065l1.344 1.793v1.344c0 .967-2.241 3.206-6.723 6.722l-.448.447h-.448v.896c5.079-2.479 7.619-4.27 7.619-5.377h.896v.447c-3.761 4.482-8.093 6.723-12.997 6.723v.449h2.241l1.793-.449h.448v.449l-5.378.869c-2.267 0-4.658-1.635-7.17-4.904v.449l2.241 3.586v.422h-1.345c-2.777-1.898-4.42-4.281-4.93-7.145l-.448-5.825c0-7.488 1.494-12.268 4.482-14.342v.447l-2.689 4.482v.447h.448c0-2.848 3.735-6.881 11.205-12.101l-1.345.448h-.448v-.448l4.032-.895zM92.467 39.17v1.346l.448 1.791h.448v-.447l-.448-2.689h-.448v-.001zm5.379-21.511v.447l-2.241 2.242v-.449l2.241-2.24zm4.033-3.138h.448v.448l-3.137 1.344c0-.596.896-1.194 2.689-1.792zM128.1 11.595l.448 4.034c.597 0 1.045-.896 1.345-2.689h.448l.448 1.793-1.345 7.171 4.93-3.586h.448l-5.378 4.93v.449l10.308-7.619.448.447c4.024-3.285 6.713-4.93 8.067-4.93h.448l.448 1.793-3.585 3.586h.448c.597-1.195 1.493-1.793 2.689-1.793l.448.448v-.448l-.448-.448.448-.448h1.345l.448 1.345c-2.25 1.054-7.479 4.938-15.687 11.653 2.021 4.41 5.607 10.387 10.757 17.925v.896l-.448 3.137-.448-.447h-.448l-.448 1.793h-1.793v-.896h-.448v.896h-.896c0-1.055-3.287-6.582-9.86-16.581l-.896-2.689-2.241.447c-.387 7.188-1.327 11.669-2.821 13.444v.449l-4.481-.449v-1.344l.448-3.137c-.896 0-1.344-.896-1.344-2.689.492-2.987.984-4.481 1.476-4.481l-.448-.447c.896-8.227 1.792-13.156 2.689-14.791l-.448-1.344 1.344-3.586v-.448l-.448-.448v-.447h.896v3.137h.448l.448-1.345-.448-.448v-.448c.299-.898 1.195-1.347 2.689-1.347zm-3.585 4.929l-.448 2.689v1.793h.448l.448-4.033v-.449h-.448zm12.997-.447h.448l-2.689 2.24h-.448l2.689-2.24zm-1.793 27.337h.448l1.345 1.346h-.448l-1.345-1.346zm1.793 1.346c.755 0 1.502 1.494 2.241 4.48v.449h-.448l-1.793-4.929zm2.241-30.476h.448l-1.793 1.793h-.448l1.793-1.793zm5.826-3.586l.448.449v.447l-.448.449-.448-.449h-.448l-4.033 2.689h-.448c-.001-.79 1.792-1.985 5.377-3.585zm-2.241 7.172l-1.793 1.344-.448.449v.447h.448l1.793-1.344.448-.449v-.447h-.448z" fill-rule="nonzero"/><path d="M156.631 11.858c.597 0 .896.896.896 2.689h.896l1.345-.896.448.448-2.241 25.098c1.898-.896 6.977-1.94 15.238-3.138h.448v.449c-10.458 1.704-15.686 3.048-15.686 4.032l4.93-1.344v.447l8.515-1.792v.448l.448-.448h.448l.448.448 2.241-.448h1.793l3.137.448v.447c0 .896-2.241 1.645-6.723 2.242v.447l.448-.447h.448l3.137.447.448-.447v1.344l-14.79 3.586-9.412 3.584h-1.345l-1.792-2.24h-.448v-.447c0-.756.597-1.205 1.792-1.346v-1.344l-1.344-1.793 1.792-20.167h.448v1.793l-.448 3.137h.896l-.896 5.826.448.449-.448 1.793v2.24h.448l1.793-23.754c.597 0 .896-.448.896-1.344l.448-.449h.9v.002z"/><path d="M189.567 12.28c-.07.896.492 1.345 1.687 1.345l.817 1.793-.475.448h.448c-2.145 6.328-3.454 13.648-3.928 21.961l-.158 2.688.448.447-.026.449-.475.447h.448l-.474.447.264 3.139-.053.896c-1.599 1.932-2.434 3.426-2.504 4.48h-1.792l-2.162-.896.633-3.137-1.713-1.793.817-6.723.448-8.065.976-1.344.105-1.793-.422-.449.026-.447h.896l.026-.449-.422-.447 1.819-8.516h-.448l.475-.449.132-2.688-.422-.448.026-.448 4.983-.448zm-6.406 34.509l-.132 2.24.923-.895.105-1.346h-.896v.001zm.079-17.925l-.132 2.688h.448l.132-2.688h-.448zm.685-4.035l-.158 2.689h.448l.158-2.689h-.448zm.685-4.48l-.158 3.137h.448l.158-3.137h-.448zM203.471 12.333l3.137 2.689c0-.896.299-1.345.896-1.345h.448l6.274 16.134v.896h-.448l-.896-2.688h-.448v.896l3.137 7.617h.448c1.195-7.768 2.917-15.879 5.167-24.332l1.345.896 1.345-.448 2.689 1.345v.448c-.896 0-1.344.598-1.344 1.793h.448l.448.447h.448l.448-2.24h.896v.448l-.448.448.448.448v.448c-2.25 6.906-4.271 16.811-6.063 29.71h-.896l.896-7.17c-.598 0-1.494 2.838-2.689 8.516-1.107.896-2.153 1.344-3.137 1.344v.896h-.448c0-.598-.598-.896-1.793-.896v-3.137c0-1.354-2.988-8.821-8.963-22.409h-.448c-1.195 5.326-2.241 12.498-3.137 21.513l-.448-.449c-1.792.527-2.689 1.275-2.689 2.242h-.896c-.598-1.125-.896-3.068-.896-5.826h-.448V44.6h-.896l-.448-2.242c0-8.118 1.792-17.978 5.378-29.578l3.583-.447zm-6.275 11.205v.447l.448.449-.448.447v.896h.448l.448-1.793-.448-.447h-.448v.001zm17.031 7.17c.773 0 1.371 1.195 1.792 3.586v.449h-.448l-1.344-4.035zM254.466 12.122l2.162 1.503c-.633 2.655-1.775 3.929-3.427 3.823l-11.706.527-.053.896 2.215.158 2.715-.264.422.5.448.027 3.164-.264.896.078-.026.449-10.413 1.08-.817 5.801.448.025 12.18-.975.396.475-.026.447-.897-.078v.447l3.085.686-.026.449c-.65 1.67-4.939 3.021-12.865 4.059l-4.508.158.421.449-2.162 5.692h-.448l.264-4.032-.448-.025-.87 6.22c8.946-1.195 15.264-1.67 18.955-1.424l2.188.607-.026.896-.896-.053.396.475-.079 1.344c-.861 1.125-2.689 1.6-5.483 1.424l-.026.447 3.585.238-.079.896-20.854 3.059-.448-.027c-1.441-.316-2.162-.781-2.162-1.396v-.08l.079-1.344 1.239-4.852-.422-.475.896.027-.158 2.24.448.053c.176-1.494.527-2.215 1.055-2.162l-.422-.5.316-4.454-.896-.08-.606 2.215.5-.422.448.025-.185 2.688-.448-.053.079-1.318-.448-.025-.053.896-.448-.027.053-.896 1.423-7.565-.448-.025 1.028-2.162-.422-.475.026-.447.976-7.566.422.475.448.025.053-.896-.29-2.268.711-4.007.079-1.345.448.053.422.475.475-.422.448.053.422.448.475-.421 1.344.105 15.738-.288zM232.031 31.71l-.211 3.139.448.025.21-3.111-.447-.053zm14.79.58h.448l-.052.449-8.12.816-.422-.5.026-.422 4.06-.186-.026.449 4.086-.606zM284.001 11.147h1.345l.448 2.24c.896 0 1.345-.448 1.345-1.344h.448l.896.896-.448 2.689h.448l-.448.448v.447l.448.449v.447h-.448l.448.449v.447l-.448 14.791v.447h.448l1.344-4.48h.896l-3.137 8.514h.896l5.378-15.236h-.896l-1.792 5.826h-.896v-.449l3.137-7.17h.448v.896l3.585-.896c1.195.439 1.792.887 1.792 1.344l.448-.447h1.345l1.792 10.756h.448c0-1.336 2.355-9.033 7.065-23.095h.448l.448 1.345h.448v-.896h.448c2.214 0 3.409.447 3.585 1.344v.896l-.896 1.345v.448h.896l.448-3.137h.896l.897.896v.447L307.755 47l-1.345.449v-.896l-.448.447h-.448l-.448-.447c0 1.195-.448 1.793-1.345 1.793-2.39-.211-3.585-.66-3.585-1.346h.448c-.299-1.494-.896-2.539-1.792-3.137l-1.793-9.858c-.51.018-2.303 4.198-5.378 12.548l-2.241 2.24h-.448L288.483 47c4.569-7.557 6.96-13.382 7.171-17.478-.791.791-2.733 5.273-5.827 13.444-.369 0-.967 1.793-1.792 5.379h-4.034l-.448-1.793-.448.448h-.448c0-1.617-.448-2.813-1.344-3.586v-1.791l1.792 1.344-.896-7.618.448-.447-.448-.449.448-.447h-.448l.448-.449v-6.273l.448-2.242h-.448l.448-.447V12.942l-.448-.448v-.447l1.344-.9zm26.337.211c-4.412 13.727-6.617 21.424-6.617 23.094v.449h.448l7.065-23.543h-.896zm-3.48 28.023l-.896 4.033v.896h.448l.896-4.48v-.449h-.448zm2.689-10.755l-.896 4.033v.449h.448l.896-4.033v-.449h-.448zM394.386 11.886h5.378c6.275 1.178 9.412 3.866 9.412 8.066v2.689l-4.482 6.275h.448l4.482-4.035v.896c-1.529 3.41-3.472 5.65-5.827 6.723l-2.689.896v1.793c.65 0 3.787 3.884 9.412 11.651 1.195.492 2.39 1.688 3.585 3.586v.447l-2.241-1.793v.449c1.494 1.582 2.241 2.777 2.241 3.586h-.448l-2.241 1.344h-.448l-.896-1.344-.448.447h-.448c-5.976-4.887-10.159-9.816-12.549-14.789l-2.241-4.481c-1.055 0-1.652 1.793-1.792 5.378.193 2.988.043 4.807-.448 5.457-.879.721-1.028 1.441-.448 2.162v.896h-1.345c-.598 0-.896-.598-.896-1.793h-.448c0 1.195-.563 1.643-1.688 1.344l-1.977-2.637.527-4.086V39.22l2.689-12.548h.448v1.793h.448l2.241-9.412c-.598 0-.896.598-.896 1.793h-.448v-.896h-2.689v-.447c0-.598.896-1.047 2.689-1.346v-.447h-.896l-2.689.896h-.448c0-.598.597-.896 1.792-.896v-.449c-1.195 0-1.792-.447-1.792-1.344l8.066-4.031zm-6.274 18.822v1.793h.448v-1.793h-.448zm.896-5.826h.448v1.793h-.448v-1.793zm.896-4.033h.448v1.346l-.448 1.791h-.448v-1.344l.448-1.793zm4.93 7.172h.448c4.692-2.25 7.979-4.641 9.86-7.172v-.896c0-1.02-1.793-2.064-5.378-3.137l-2.689.896-2.241 10.309zm6.723 16.131v.449l1.792 1.793c-.579-1.353-1.177-2.101-1.792-2.242zm3.586-21.51l-2.241 3.137h.448l2.241-2.689v-.447h-.448v-.001zm-1.345-5.827c.598 1.354 1.195 2.1 1.793 2.24v-.896l-1.793-1.344zm0 30.476v.447l1.793 1.344v-.447l-1.793-1.344zm2.689-27.786l-.448 2.24h.448l.448-.447v-1.793h-.448zm3.138 4.033h.896l-.448 1.344h-.448v-1.344z" fill-rule="nonzero"/><path d="M420.413 11.858c.597 0 .896.896.896 2.689h.896l1.345-.896.448.448-2.241 25.098c1.898-.896 6.977-1.94 15.238-3.138h.448v.449c-10.458 1.704-15.686 3.048-15.686 4.032l4.93-1.344v.447l8.515-1.792v.448l.448-.448h.448l.448.448 2.241-.448h1.793l3.137.448v.447c0 .896-2.241 1.645-6.723 2.242v.447l.448-.447h.448l3.137.447.448-.447v1.344l-14.79 3.586-9.412 3.584h-1.345l-1.792-2.24h-.448v-.447c0-.756.597-1.205 1.792-1.346v-1.344l-1.344-1.793 1.792-20.167h.448v1.793l-.448 3.137h.896l-.896 5.826.448.449-.448 1.793v2.24h.448l1.793-23.754c.597 0 .896-.448.896-1.344l.448-.449h.9v.002z"/><path d="M450.48 11.991h1.792l1.345.896 3.137-.448c5.185 0 9.965 2.988 14.342 8.965l2.241 4.48-.448.449.448 2.24v2.24c0 7.681-6.274 13.507-18.823 17.479l-4.482.447c0-.756-.598-1.203-1.792-1.344v1.791h-1.345V46.5l-.448-.449.448-.447v-.449c-1.792-1.229-2.688-2.275-2.688-3.137.896-13.532 2.39-23.392 4.482-29.579h.448l.448.448.895-.896zM445.999 46.5h.448v.447l-.896.896h-.448v-.447l.896-.896zm2.689-30.028l-2.241 12.998v.447h.448l2.241-12.549v-.896h-.448zm2.241 27.339l.448 1.344h.896l.896-.896v-.447h-.448l-1.344.447-.448-.448zm4.929-24.201c0 .598-.598.896-1.792.896-1.195 5.447-2.092 11.723-2.689 18.821 1.74 0 6.222-1.493 13.445-4.479v-.449h-.896c2.39-2.443 3.585-4.982 3.585-7.619v-1.344c0-3.287-2.241-5.229-6.723-5.826h-4.93zm-1.344 23.751v.449h1.792l2.241-.896v-.449h-.447l-3.586.896zm10.308-23.751v.447l1.792.896v-.447l-1.344-.896h-.448zm0 21.064c.703-.105 1.749-1.002 3.137-2.688v-.449l-3.137 3.137zm2.689-8.068l-.896 1.793h.448l.896-1.793h-.448zm1.344-6.722l-.448 5.379h.896v-1.346l.448-1.791-.448-2.242h-.448zm3.138 3.586l-2.241 7.17v.449h.448l2.241-6.723v-.896h-.448zM507.513 11.886h5.378c6.275 1.178 9.412 3.866 9.412 8.066v2.689l-4.482 6.275h.448l4.482-4.035v.896c-1.529 3.41-3.472 5.65-5.827 6.723l-2.689.896v1.793c.65 0 3.787 3.884 9.412 11.651 1.195.492 2.39 1.688 3.585 3.586v.447l-2.241-1.793v.449c1.494 1.582 2.241 2.777 2.241 3.586h-.448l-2.241 1.344h-.448l-.896-1.344-.448.447h-.448c-5.976-4.887-10.16-9.816-12.549-14.789l-2.241-4.481c-1.055 0-1.652 1.793-1.792 5.378.193 2.988.043 4.807-.448 5.457-.879.721-1.028 1.441-.448 2.162v.896h-1.345c-.598 0-.896-.598-.896-1.793h-.448c0 1.195-.563 1.643-1.688 1.344l-1.977-2.637.527-4.086V39.22l2.688-12.548h.449v1.793h.448l2.241-9.412c-.598 0-.896.598-.896 1.793h-.448v-.896h-2.689v-.447c0-.598.896-1.047 2.689-1.346v-.447h-.896l-2.69.896h-.447c0-.598.597-.896 1.792-.896v-.449c-1.195 0-1.792-.447-1.792-1.344l8.066-4.031zm-6.274 18.822v1.793h.448v-1.793h-.448zm.896-5.826h.448v1.793h-.448v-1.793zm.896-4.033h.448v1.346l-.448 1.791h-.448v-1.344l.448-1.793zm4.93 7.172h.448c4.692-2.25 7.979-4.641 9.86-7.172v-.896c0-1.02-1.793-2.064-5.378-3.137l-2.689.896-2.241 10.309zm6.723 16.131v.449l1.792 1.793c-.579-1.353-1.177-2.101-1.792-2.242zm3.586-21.51l-2.241 3.137h.448l2.241-2.689v-.447h-.448v-.001zm-1.345-5.827c.598 1.354 1.195 2.1 1.793 2.24v-.896l-1.793-1.344zm0 30.476v.447l1.793 1.344v-.447l-1.793-1.344zm2.689-27.786l-.448 2.24h.448l.448-.447v-1.793h-.448zm3.137 4.033h.896l-.448 1.344h-.448v-1.344z" fill-rule="nonzero"/><path d="M545.124 10.065c.193.896 1.388 1.346 3.585 1.346l3.585 15.686h3.137v.449l-2.689.447v.449c.896 0 1.345.299 1.345.895h3.585v.449c0 .668-1.494 1.266-4.482 1.793l.896 2.689-.448 1.344.448 2.688-.448.447h.448l-.448.449.448 5.377v2.689l-.448-.447h-.448l1.345 6.723h-.896c0-.896-.299-1.346-.896-1.346v.449l.448 1.344h-.448l-.448-.447h-.448c0 .896-.299 1.344-.896 1.344l-2.241-7.619h-.448v1.793h-.448l-.896-5.379 1.345.896v-.447c-.247-2.689-.695-4.033-1.345-4.033l.448-.449V38.3h-.896v1.344h-.448v-1.792l.448-.447h-.448l-.448.447v-1.793h.448l.448.449h.448l-.448-.449v-2.688l-9.86 2.24v.896l3.137-.896 1.793.447 2.241-.447v.896c-6.274 1.125-9.412 2.618-9.412 4.481-.791 3.285-1.688 5.377-2.689 6.273v.896h-1.345l-.448-.447h-.449v.447l-1.344-.896.896-2.689h-.448c-.896 0-1.345 1.195-1.345 3.586l-.896-.896.448-2.689-1.344-1.344 7.619-18.374h.448c0 .896.299 1.344.896 1.344l.448-2.24-.448.447h-.448v-1.793l.448-2.24.448.449h.448l-.448-.449v-.447l.896-1.793h.448l.448.447h.448v-.447c0-.598-.448-.896-1.345-.896l2.241-6.275h1.792l-.448.449v.447c2.075-1.195 4.017-1.793 5.828-1.793zm-12.998 19.272l-.448 1.793h.448l.896-1.793h-.896zm1.345-2.24l-.448.449v.896h.448l.448-1.346h-.448v.001zm2.689 1.793l-.448 1.793h.448l.448-.449V28.89h-.448zm2.241-5.827l-.896 3.137-.448-.447h-.448l.448 1.793h.448l1.344-4.035v-.447h-.448v-.001zm4.033-2.689l-3.585 9.412h.896c2.988 0 4.631-.896 4.93-2.689l-1.793-6.723h-.448zm-2.689 10.309v.447h.896c2.689-.299 4.034-.746 4.034-1.344h-.448l-4.482.897zm6.275 9.858h.896v2.689h-.448l-.448-2.689zm1.793 4.482v.896l1.344-.449v-.896l-1.344.449zm4.481-1.345v.896l.448 1.793h.448v-.896l-.448-1.793h-.448zM568.924 12.333l3.137 2.689c0-.896.299-1.345.897-1.345h.448l6.274 16.134v.896h-.448l-.896-2.688h-.448v.896l3.137 7.617h.448c1.195-7.768 2.917-15.879 5.167-24.332l1.344.896 1.345-.448 2.689 1.345v.448c-.896 0-1.344.598-1.344 1.793h.448l.448.447h.448l.448-2.24h.896v.448l-.448.448.448.448v.448c-2.25 6.906-4.271 16.811-6.063 29.71h-.896l.896-7.17c-.598 0-1.494 2.838-2.689 8.516-1.107.896-2.153 1.344-3.137 1.344v.896h-.448c0-.598-.598-.896-1.793-.896v-3.137c0-1.354-2.988-8.821-8.963-22.409h-.448c-1.195 5.326-2.241 12.498-3.137 21.513l-.448-.449c-1.792.527-2.689 1.275-2.689 2.242h-.896c-.598-1.125-.896-3.068-.896-5.826h-.448V44.6h-.896l-.448-2.242c0-8.118 1.792-17.978 5.378-29.578l3.583-.447zm-6.275 11.205v.447l.448.449-.448.447v.896h.448l.448-1.793-.448-.447h-.448v.001zm17.031 7.17c.773 0 1.371 1.195 1.792 3.586v.449h-.448l-1.344-4.035zM603.856 11.595l.448 4.034c.598 0 1.045-.896 1.345-2.689h.448l.448 1.793-1.345 7.171 4.93-3.586h.448l-5.378 4.93v.449l10.308-7.619.448.447c4.024-3.285 6.713-4.93 8.067-4.93h.448l.448 1.793-3.585 3.586h.448c.597-1.195 1.494-1.793 2.689-1.793l.448.448v-.448l-.448-.448.448-.448h1.345l.448 1.345c-2.25 1.054-7.479 4.938-15.686 11.653 2.021 4.41 5.606 10.387 10.756 17.925v.896l-.448 3.137-.448-.447h-.448l-.448 1.793h-1.793v-.896h-.448v.896h-.896c0-1.055-3.287-6.582-9.86-16.581l-.896-2.689-2.241.447c-.387 7.188-1.327 11.669-2.821 13.444v.449l-4.481-.449v-1.344l.448-3.137c-.896 0-1.344-.896-1.344-2.689.492-2.987.984-4.481 1.476-4.481l-.448-.447c.896-8.227 1.793-13.156 2.689-14.791l-.448-1.344 1.344-3.586v-.448l-.448-.448v-.447h.896v3.137h.448l.448-1.345-.448-.448v-.448c.299-.898 1.196-1.347 2.689-1.347zm-3.585 4.929l-.448 2.689v1.793h.448l.448-4.033v-.449h-.448zm12.998-.447h.448l-2.689 2.24h-.448l2.689-2.24zm-1.793 27.337h.448l1.345 1.346h-.448l-1.345-1.346zm1.793 1.346c.755 0 1.502 1.494 2.241 4.48v.449h-.449l-1.792-4.929zm2.24-30.476h.448l-1.793 1.793h-.448l1.793-1.793zm5.826-3.586l.448.449v.447l-.448.449-.448-.449h-.448l-4.033 2.689h-.448c0-.79 1.792-1.985 5.377-3.585zm-2.24 7.172l-1.793 1.344-.448.449v.447h.448l1.793-1.344.448-.449v-.447h-.448zM635.139 12.28c-.07.896.492 1.345 1.687 1.345l.817 1.793-.475.448h.448c-2.145 6.328-3.454 13.648-3.928 21.961l-.158 2.688.448.447-.026.449-.475.447h.448l-.475.447.264 3.139-.053.896c-1.599 1.932-2.435 3.426-2.504 4.48h-1.792l-2.162-.896.633-3.137-1.713-1.793.817-6.723.448-8.065.976-1.344.105-1.793-.422-.449.026-.447h.896l.026-.449-.422-.447 1.819-8.516h-.448l.475-.449.132-2.688-.422-.448.026-.448 4.984-.448zm-6.407 34.509l-.132 2.24.923-.895.105-1.346h-.896v.001zm.08-17.925l-.132 2.688h.448l.132-2.688h-.448zm.685-4.035l-.158 2.689h.448l.158-2.689h-.448zm.685-4.48l-.158 3.137h.448l.158-3.137h-.448zM649.042 12.333l3.137 2.689c0-.896.299-1.345.896-1.345h.448l6.274 16.134v.896h-.448l-.896-2.688h-.448v.896l3.137 7.617h.448c1.195-7.768 2.917-15.879 5.167-24.332l1.344.896 1.345-.448 2.689 1.345v.448c-.896 0-1.344.598-1.344 1.793h.448l.448.447h.448l.448-2.24h.896v.448l-.448.448.448.448v.448c-2.25 6.906-4.271 16.811-6.063 29.71h-.896l.896-7.17c-.598 0-1.494 2.838-2.689 8.516-1.107.896-2.153 1.344-3.137 1.344v.896h-.448c0-.598-.598-.896-1.793-.896v-3.137c0-1.354-2.988-8.821-8.963-22.409h-.448c-1.195 5.326-2.241 12.498-3.137 21.513l-.448-.449c-1.793.527-2.689 1.275-2.689 2.242h-.896c-.598-1.125-.896-3.068-.896-5.826h-.448V44.6h-.896l-.448-2.242c0-8.118 1.792-17.978 5.378-29.578l3.584-.447zm-6.274 11.205v.447l.448.449-.448.447v.896h.448l.448-1.793-.448-.447h-.448v.001zm17.031 7.17c.773 0 1.371 1.195 1.792 3.586v.449h-.448l-1.344-4.035zM693.911 12.86l.396.448h.448l.053-.448c4.938 1.266 7.285 3.059 7.039 5.379l.58 2.689h-.896c.123-1.195-.115-1.793-.712-1.793h-.448l.237 2.24-.079.449h-.896c-.598 0-.843-.449-.738-1.346l-.5.449h-.448c-1.494-1.195-2.926-1.793-4.297-1.793-2.988 0-6.459 3.137-10.414 9.412l-1.423 4.93c-.439 3.971 1.195 6.81 4.903 8.515l-.105.895h-.896l-.053.449h.896c2.126 0 5.255-2.689 9.386-8.065l.053-.449h-.448c-2.373 2.865-4.543 4.956-6.512 6.274h-.448l5.563-5.825h-3.137c.07-.598-.343-.896-1.239-.896l-.395-.449.053-.447c.053-.598 1.59-1.047 4.613-1.346l.105-.896-.501.449h-2.689l-2.346-3.137.501-.449.026-.447 4.903.447 11.785-1.344.053-.449c-1.494 0-2.206-.299-2.136-.896h.448l.396.449.501-.449h.448c3.181.914 4.736 1.662 4.666 2.242l-.026.447-.501.449-.053.447h1.793l-.106.896h-.448l-7.25.896-.053.447h.448l4.086-.447-.105.896c-2.988 0-4.614 1.195-4.877 3.586l-2.135 7.169.422.447-.053.449-.712 2.24.079 3.586-.976.896.369.447c-1.23.387-1.898 1.135-2.004 2.242h-1.344c-.598 0-.756-1.346-.475-4.033h-.448l-.343 3.137h-1.345l.237-2.242-.105-3.137h-.896c-1.705 1.195-3.418 1.793-5.141 1.793h-2.241l-.765-.896.026-.447h.896l.053-.449c-6.205 0-9.562-2.092-10.071-6.273a32.317 32.317 0 0 1-.527-5.8c0-1.195.07-2.398.211-3.611l.079-.896c.264-2.285 1.335-5.273 3.216-8.963h.448l-.105.896-1.688 3.137-.026.447h.448c.299-2.723 3.207-6.16 8.726-10.308h.448l.053-.448h-.448l-1.397.448c.878-1.492 3.655-2.24 8.33-2.24zm-12.285 5.827l-.079.449-1.977 1.793.053-.449 2.003-1.793zm3.032-3.137h.448l-3.48 3.137.053-.447 2.979-2.69zm2.399 31.372l-.026.447h2.241l.026-.447h-2.241zm1.081-5.826h.448l-.976.896h-.448l.976-.896zm2.188 4.48l3.796-1.793.105-.896h-.448l-3.453 2.689zm.923-29.13l-.026.447h3.137l.026-.447h-3.137zm10.202 9.412h1.792l-1.001.896-.791-.896z" fill-rule="nonzero"/><path d="M738.158 11.858c.597 0 .896.896.896 2.689h.896l1.345-.896.448.448-2.241 25.098c1.898-.896 6.977-1.94 15.238-3.138h.448v.449c-10.458 1.704-15.686 3.048-15.686 4.032l4.93-1.344v.447l8.515-1.792v.448l.448-.448h.448l.448.448 2.241-.448h1.793l3.137.448v.447c0 .896-2.241 1.645-6.723 2.242v.447l.448-.447h.448l3.137.447.448-.447v1.344l-14.79 3.586-9.412 3.584h-1.345l-1.792-2.24h-.448v-.447c0-.756.597-1.205 1.792-1.346v-1.344l-1.344-1.793 1.792-20.167h.448v1.793l-.448 3.137h.896l-.896 5.826.448.449-.448 1.793v2.24h.448l1.793-23.754c.597 0 .896-.448.896-1.344l.448-.449h.9v.002z"/><path d="M771.094 12.28c-.07.896.492 1.345 1.687 1.345l.817 1.793-.475.448h.448c-2.145 6.328-3.454 13.648-3.928 21.961l-.158 2.688.448.447-.026.449-.475.447h.448l-.475.447.264 3.139-.053.896c-1.599 1.932-2.434 3.426-2.504 4.48h-1.792l-2.162-.896.633-3.137-1.713-1.793.817-6.723.448-8.065.976-1.344.105-1.793-.422-.449.026-.447h.896l.026-.449-.422-.447 1.819-8.516h-.447l.475-.449.132-2.688-.422-.448.026-.448 4.983-.448zm-6.406 34.509l-.132 2.24.923-.895.105-1.346h-.896v.001zm.079-17.925l-.132 2.688h.448l.132-2.688h-.448zm.685-4.035l-.158 2.689h.448l.158-2.689h-.448zm.685-4.48l-.158 3.137h.448l.158-3.137h-.448zM789.434 11.464c.791.598 3.304.896 7.54.896l-.026.447h-3.137l-.026.448c3.744 0 6.081.896 7.013 2.688l-.053.896h-2.241l-.026.449 3.111.447-.026.449h-2.689l-.026.447c.896 0 1.327.299 1.292.896-5.325 0-10.08 1.943-14.262 5.826l-.026.449c5.782 1.547 10.361 4.982 13.735 10.307l-.026.449c-1.09 3.866-4.139 7.45-9.148 10.755l-2.742.449-.026.447h.896c-.036.809-2.777 1.705-8.226 2.689l.053-.896h2.241l.053-.449c-1.916 0-3.647-1.045-5.194-3.137-1.336-.686-2.003-1.994-2.003-3.928 0-.176.009-.359.026-.553l1.397-.896 1.292.896h.896c8.436-1.318 12.786-4.007 13.05-8.067-3.533-1.793-5.871-2.689-7.013-2.689l-.026.449-4.403-1.793.422.447-.026.896c-3.726-2.74-5.545-4.832-5.457-6.273l3.506-6.275 2.346-1.793-.053.896 8.012-6.269zm-6.275 37.198l-.026.447h1.792l2.267-.447v-.449h-.448l-3.585.449zm.158-25.099l-.026.449 7.909-4.93 3.638-.896.053-.896h-.896c-4.729 1.758-8.288 3.85-10.678 6.273zm2.478 18.376h.448l.949-.896h-.448l-.949.896zm2.452 3.584v.449h.448l1.872-1.346-2.32.897zm5.615-3.584l-1.924 2.24h.448l1.924-2.24h-.448zM831.341 11.306l1.344.447v.896h-1.344l.896 1.345c-.65 1.494-3.041 2.241-7.17 2.241l-3.137.447-.448 1.346h.448c-.896 2.127-2.689 11.688-5.378 28.683l1.345 5.826h-.448c-.668 0-1.266-1.494-1.793-4.482l.448-4.482v-.447h-.448v.896c-.896 0-1.344.299-1.344.896v.447l.896 7.172v.447h-.896l-1.793-1.344-.448.447h-.448c-1.196-2.584-1.793-4.824-1.793-6.723l.448.449h.448l-.896-3.139 1.345-.447v-2.24h-.896v-.449c.896 0 1.345-.299 1.345-.896v-.447h-.896c0-2.39.448-3.585 1.345-3.585v-5.826c.474-.422 1.072-3.559 1.792-9.412l-3.137.449-6.274-.449v-.447l2.241-.449v.449l.448-.449h6.723v-1.344l-7.171.896-.448-.449h-.448l-2.689.449-1.344-.896.448-2.241-.448-.448c0-1.494 1.792-2.24 5.378-2.24l24.197-.897zm-19.272 26.441l-.896 9.86h.896l-.448-2.242v-.896l.896-1.344h-.448l.448-.449v-.447l-.448-.447v-.449l.896-1.793-.448-1.792h-.448v-.001zm16.583-25.098v.448h1.792v-.448h-1.792z" fill-rule="nonzero"/><path d="M357.314 37.481l23.751-5.617C380.99 14.712 367.063.819 349.888.819c-14.802 0-27.186 10.318-30.373 24.152l37.799 12.51z"/><path d="M357.314 40.652l-38.334-12.69a30.816 30.816 0 0 0-.271 4.041c0 17.218 13.958 31.179 31.179 31.179 16.188 0 29.487-12.334 31.03-28.11l-23.604 5.58z"/></g></svg>