<svg xmlns="http://www.w3.org/2000/svg" viewBox="0 0 425.29 155.69"><defs><style>.cls-1{fill:#e84027}.cls-2{fill:#00a19a}</style></defs><g id="Ebene_2" data-name="Ebene 2"><g id="wide"><path class="cls-1" d="M0 8.4v147.22h80.91V35.17L0 8.4z"/><path class="cls-2" d="M80.91 26.81V.02H0v.02l80.91 26.77zM235.19 77.86H279L326.44 0H127.77a38.94 38.94 0 0 0-37.83 29.8z"/><path class="cls-1" d="M232.08 85.19L210 77.87h-.05l-121-40V39a38.93 38.93 0 0 0 38.92 38.92H88.85v77.83h120.51a38.91 38.91 0 0 0 22.72-70.5z"/><path class="cls-2" d="M333.64 110.43l57-13.54L333.46 0l-54.5 92.34 54.68 18.09z"/><path class="cls-1" d="M394.86 104.05l-61.58 14.62-58.44-19.34-33.22 56.29h183.67z"/></g></g></svg>