<svg width="84" height="31" xmlns="http://www.w3.org/2000/svg"><g fill="black" fill-rule="evenodd"><path d="M-4-29h88v91H-4z"/><g fill-rule="nonzero"><path fill="#F04D32" d="M.475 1.765v28.87h15.868V7.015z"/><path fill="#13A89E" d="M16.345.122H.477l15.868 5.253zM64.49 1.122H25.53a7.632 7.632 0 0 0-7.42 5.84l28.488 9.424h8.575L64.49 1.122z"/><path d="M45.986 16.823l-4.344-1.435-23.728-7.844v.222a7.632 7.632 0 0 0 7.63 7.632H17.9V30.66h23.63a7.63 7.63 0 0 0 4.456-13.825v-.012z" fill="#F04D32"/><path fill="#13A89E" d="M65.863.118l-10.69 18.108 10.729 3.541 11.178-2.655L65.867.118z"/><path fill="#F04D32" d="M77.907 20.522l-12.076 2.867-11.46-3.793-6.514 11.039h36.02z"/></g></g></svg>