<svg xmlns="http://www.w3.org/2000/svg" viewBox="0 0 871.37 157.12"><defs><style>.cls-1{fill:#fff}</style></defs><g id="Ebene_2" data-name="Ebene 2"><g id="wide"><path class="cls-1" d="M2.74 38.94V.46h3.08v38.48zM44.63 38.94l-18-28c-1.77-2.74-3.25-5.19-4.56-7.7.17 4.79.4 17.22.4 24.74v11h-3.03V.46h4.16l17.78 27.7c1.32 2 2.51 4.11 3.65 6.27-.23-5.64-.4-16.07-.4-24V.46h3.08v38.48zM72.54 3v36h-3.08V3h-12.2V.46h27.48V3zM94.25 38.94V.46h19.27v2.45H97.33v14.93h14.88v2.45H97.33v16.14h16.19v2.51zM144.75 38.94l-13.56-17.73h-3.54v17.73h-3.08V.51s4.79-.22 8.78-.22c7.36 0 12.77 3 12.77 9.86 0 7.12-5.36 10.49-11.46 10.94 0 0 1.71 1.88 3.37 4.05l10.71 13.8zm-17.1-20.18h5c6.72 0 10.26-3.13 10.26-8.15 0-5.24-3.65-7.92-10-7.92-2.56 0-5.24.17-5.24.17zM183.88 38.94l-18-28c-1.77-2.74-3.25-5.19-4.56-7.7.17 4.79.4 17.22.4 24.74v11h-3.08V.46h4.16l17.79 27.7c1.31 2 2.51 4.11 3.65 6.27-.23-5.64-.4-16.07-.4-24V.46H187v38.48zM225.3 38.94l-3.65-10.09h-18.19l-3.7 10.09h-3.31L211.1.46h3.25l14.54 38.48zm-11-30c-.68-1.88-1.25-3.53-1.76-5.13h-.06c-.51 1.6-1.08 3.25-1.71 5l-6.44 17.5h16.36zM245 3v36h-3.08V3h-12.2V.46h27.48V3zM266.68 38.94V.46h3.08v38.48zM298 39.39c-10.77 0-16.81-7.81-16.81-19.32 0-13 8-20.07 17.73-20.07 10.77 0 16.81 7.81 16.81 19.33-.02 12.99-8.06 20.06-17.73 20.06zm.46-36.82c-7.75 0-14.08 5.87-14.08 16.76 0 10.26 4.73 17.5 14.08 17.5 7.75 0 14.08-5.87 14.08-16.82-.02-10.2-4.75-17.44-14.1-17.44zM352.33 38.94l-18-28c-1.77-2.74-3.25-5.19-4.56-7.7.17 4.79.4 17.22.4 24.74v11h-3.08V.46h4.16l17.79 27.7c1.31 2 2.51 4.11 3.65 6.27-.23-5.64-.4-16.07-.4-24V.46h3.08v38.48zM393.75 38.94l-3.65-10.09h-18.18l-3.71 10.09h-3.31L379.55.46h3.25l14.54 38.48zM382.8 9c-.68-1.88-1.25-3.53-1.76-5.13H381c-.51 1.6-1.08 3.25-1.71 5l-6.44 17.5h16.36zM406.84 38.94V.46h3.08v36H425v2.51zM121.21 61a24.44 24.44 0 0 0-8.09-1.36c-4.35 0-6.32 1.7-6.32 4.28 0 7.21 18.9 4.69 18.9 19.72 0 8.63-6.53 14.75-18.29 14.75a46 46 0 0 1-10.88-1.22l1-10.06a29.4 29.4 0 0 0 10.48 2c3.67 0 6.39-1.29 6.39-4.41 0-7.62-18.7-4.7-18.7-19.79 0-8.43 6.66-14.07 18.15-14.07a41 41 0 0 1 8.37.88zM134.07 97.59v-45.9h10.61v36.65h13.86v9.25zM195.47 97.59l-2.79-9h-15.77l-2.79 9h-10.54l14.62-45.9h14l14.8 45.9zm-8.84-29.65a72.33 72.33 0 0 1-1.77-7.07h-.13a67.18 67.18 0 0 1-1.7 7.07l-3.81 12.24h11.22zM243 96.23a34.19 34.19 0 0 1-11.42 2c-16.93 0-21.48-11.56-21.48-21.9 0-14.89 8.09-24.95 23.25-24.95a32.42 32.42 0 0 1 9.38 1.29l-1.33 9.63a23.82 23.82 0 0 0-8.23-1.43c-7.41 0-11.42 5.37-11.42 13.67 0 9 3.67 14 11.9 14a19.56 19.56 0 0 0 7.89-1.7zM274.79 97.59L262.35 76v21.59h-10.61v-45.9h10.61V72l12.57-20.26h12.72l-15.09 22 16 23.87zM295.35 97.59v-45.9H306v36.65h13.87v9.25zM326.76 97.59v-45.9h10.6v45.9zM373.73 97.59l-12.17-23.26a58.21 58.21 0 0 1-3.6-8.84c.2 3.4.48 13.26.48 19.25v12.85h-10.13v-45.9h13.93l11.43 21.83a69.78 69.78 0 0 1 3.67 8.77c-.34-4-.48-13.74-.48-19.18V51.69h10.06v45.9zM398 97.59v-45.9h27v8.91h-16.4v9.11h15v8.63h-15v10.13H425v9.12zM31.89 156.24l-2.79-9.05H13.33l-2.79 9.05H0l14.62-45.9h14l14.82 45.9zm-8.84-29.65a72.33 72.33 0 0 1-1.77-7.07h-.13a67.18 67.18 0 0 1-1.7 7.07l-3.81 12.24h11.22zM74.31 119.66a24.54 24.54 0 0 0-8.09-1.37c-4.35 0-6.33 1.71-6.33 4.29 0 7.21 18.9 4.69 18.9 19.72 0 8.63-6.52 14.75-18.29 14.75a46 46 0 0 1-10.87-1.22l.95-10.06a29.39 29.39 0 0 0 10.47 2c3.67 0 6.39-1.29 6.39-4.42 0-7.61-18.7-4.69-18.7-19.78 0-8.43 6.67-14.07 18.16-14.07a40.8 40.8 0 0 1 8.36.88zM110.19 119.66a24.45 24.45 0 0 0-8.09-1.37c-4.35 0-6.32 1.71-6.32 4.29 0 7.21 18.9 4.69 18.9 19.72 0 8.63-6.53 14.75-18.29 14.75a46 46 0 0 1-10.88-1.22l.95-10.06a29.39 29.39 0 0 0 10.47 2c3.67 0 6.39-1.29 6.39-4.42 0-7.61-18.69-4.69-18.69-19.78 0-8.43 6.66-14.07 18.15-14.07a40.8 40.8 0 0 1 8.36.88zM142.59 157.12c-14.15 0-21.49-8.16-21.49-22.85 0-16 10.61-24.81 23-24.81 14.08 0 21.42 8.16 21.42 22.84-.02 16.05-10.63 24.82-22.93 24.82zm.74-38c-6.52 0-10.87 4.9-10.87 14.08 0 9 3.6 14.27 10.87 14.27 6.53 0 10.88-4.89 10.88-14.07 0-8.98-3.6-14.29-10.88-14.29zM205.23 154.88a34.19 34.19 0 0 1-11.42 2c-16.93 0-21.49-11.56-21.49-21.89 0-14.9 8.1-25 23.26-25a32.42 32.42 0 0 1 9.38 1.29L203.6 121a23.81 23.81 0 0 0-8.22-1.43c-7.42 0-11.43 5.37-11.43 13.67 0 9 3.67 14 11.9 14a19.56 19.56 0 0 0 7.89-1.7zM214.06 156.24v-45.9h10.61v45.9zM263.08 156.24l-2.78-9.05h-15.78l-2.78 9.05H231.2l14.62-45.9h14l14.83 45.9zm-8.83-29.65a69.57 69.57 0 0 1-1.77-7.07h-.14a67.18 67.18 0 0 1-1.7 7.07l-3.81 12.24h11.22zM295.33 119.38v36.86h-10.54v-36.86h-11v-9h32.57v9zM313.44 156.24v-45.9h10.61v45.9zM354.48 157.12c-14.14 0-21.48-8.16-21.48-22.85 0-16 10.6-24.81 23-24.81 14.07 0 21.42 8.16 21.42 22.84-.02 16.05-10.63 24.82-22.94 24.82zm.75-38c-6.53 0-10.88 4.9-10.88 14.08 0 9 3.61 14.27 10.88 14.27 6.53 0 10.88-4.89 10.88-14.07 0-8.98-3.6-14.29-10.88-14.29zM411.79 156.24L399.62 133a57.2 57.2 0 0 1-3.6-8.84c.2 3.4.48 13.26.48 19.24v12.86h-10.14v-45.9h13.94l11.43 21.83a72.88 72.88 0 0 1 3.67 8.77c-.34-3.95-.48-13.74-.48-19.18v-11.44H425v45.9zM446.07 9v147.22h80.92V35.77L446.07 9zM524 3.62v19.64L464.63 3.62H524m3-3h-80.92L527 27.41V.62zM767.17 3.62l-43.83 71.84h-41.59l-142.07-47a35.78 35.78 0 0 1 34.16-24.84h193.33m5.34-3zm0 0H573.84A38.92 38.92 0 0 0 536 30.4l145.27 48.06H725L772.51.62zM678.15 85.79L656 78.47l-121-40v1.13a38.92 38.92 0 0 0 38.91 38.92h-38.98v77.83h120.5a38.91 38.91 0 0 0 22.72-70.5zM779.53 6.5l52.53 89-52.22 12.4-50.33-16.64 50-84.76m0-5.9L725 92.94 779.71 111l57-13.54L779.53.6z"/><path class="cls-1" d="M840.93 104.65l-61.58 14.62-58.44-19.34-33.22 56.29h183.68z"/></g></g></svg>