<?xml version="1.0" encoding="UTF-8"?>
<svg width="14px" height="14px" viewBox="0 0 14 14" version="1.1" xmlns="http://www.w3.org/2000/svg" xmlns:xlink="http://www.w3.org/1999/xlink">
    <!-- Generator: Sketch 50.2 (55047) - http://www.bohemiancoding.com/sketch -->
    <title>Combined Shape</title>
    <desc>Created with Sketch.</desc>
    <defs></defs>
    <g id="Symbols" stroke="none" stroke-width="1" fill="none" fill-rule="evenodd">
        <g id="Icons/Clear" transform="translate(-5.000000, -5.000000)" fill="#FFFFFF">
            <path d="M13.0606602,12 L14.8284271,10.232233 C15.1213203,9.93933983 15.1213203,9.46446609 14.8284271,9.17157288 C14.5355339,8.87867966 14.0606602,8.87867966 13.767767,9.17157288 L12,10.9393398 L10.232233,9.17157288 C9.93933983,8.87867966 9.46446609,8.87867966 9.17157288,9.17157288 C8.87867966,9.46446609 8.87867966,9.93933983 9.17157288,10.232233 L10.9393398,12 L9.17157288,13.767767 C8.87867966,14.0606602 8.87867966,14.5355339 9.17157288,14.8284271 C9.46446609,15.1213203 9.93933983,15.1213203 10.232233,14.8284271 L12,13.0606602 L13.767767,14.8284271 C14.0606602,15.1213203 14.5355339,15.1213203 14.8284271,14.8284271 C15.1213203,14.5355339 15.1213203,14.0606602 14.8284271,13.767767 L13.0606602,12 Z M7.40380592,16.5961941 C4.86539803,14.0577862 4.86539803,9.94221382 7.40380592,7.40380592 C9.94221382,4.86539803 14.0577862,4.86539803 16.5961941,7.40380592 C19.134602,9.94221382 19.134602,14.0577862 16.5961941,16.5961941 C14.0577862,19.134602 9.94221382,19.134602 7.40380592,16.5961941 Z" id="Combined-Shape"></path>
        </g>
    </g>
</svg>